<svg width="25" height="25" viewBox="0 0 25 25" fill="none" xmlns="http://www.w3.org/2000/svg">
<path d="M3.5 21.5V19.5C3.5 18.4391 3.92143 17.4217 4.67157 16.6716C5.42172 15.9214 6.43913 15.5 7.5 15.5H11.5C12.5609 15.5 13.5783 15.9214 14.3284 16.6716C15.0786 17.4217 15.5 18.4391 15.5 19.5V21.5M16.5 3.62988C17.3604 3.85018 18.123 4.35058 18.6676 5.05219C19.2122 5.7538 19.5078 6.61671 19.5078 7.50488C19.5078 8.39305 19.2122 9.25596 18.6676 9.95757C18.123 10.6592 17.3604 11.1596 16.5 11.3799M21.5 21.5004V19.5004C21.4949 18.6175 21.1979 17.7612 20.6553 17.0648C20.1126 16.3684 19.3548 15.8711 18.5 15.6504M5.5 7.5C5.5 8.56087 5.92143 9.57828 6.67157 10.3284C7.42172 11.0786 8.43913 11.5 9.5 11.5C10.5609 11.5 11.5783 11.0786 12.3284 10.3284C13.0786 9.57828 13.5 8.56087 13.5 7.5C13.5 6.43913 13.0786 5.42172 12.3284 4.67157C11.5783 3.92143 10.5609 3.5 9.5 3.5C8.43913 3.5 7.42172 3.92143 6.67157 4.67157C5.92143 5.42172 5.5 6.43913 5.5 7.5Z" stroke="black" stroke-width="2" stroke-linecap="round" stroke-linejoin="round"/>
</svg>
