<svg width="24" height="25" viewBox="0 0 24 25" fill="none" xmlns="http://www.w3.org/2000/svg">
<path d="M3 12.5C3 14.8869 3.94821 17.1761 5.63604 18.864C7.32387 20.5518 9.61305 21.5 12 21.5C14.3869 21.5 16.6761 20.5518 18.364 18.864C20.0518 17.1761 21 14.8869 21 12.5C21 10.1131 20.0518 7.82387 18.364 6.13604C16.6761 4.44821 14.3869 3.5 12 3.5M17 12.5C17 11.5111 16.7068 10.5444 16.1574 9.72215C15.6079 8.89991 14.8271 8.25904 13.9134 7.8806C12.9998 7.50217 11.9945 7.40315 11.0246 7.59608C10.0546 7.789 9.16373 8.26521 8.46447 8.96447C7.76521 9.66373 7.289 10.5546 7.09608 11.5246C6.90315 12.4945 7.00217 13.4998 7.3806 14.4134C7.75904 15.3271 8.39991 16.1079 9.22215 16.6574C10.0444 17.2068 11.0111 17.5 12 17.5" stroke="black" stroke-width="2" stroke-linecap="round" stroke-linejoin="round"/>
</svg>
