<svg width="25" height="25" viewBox="0 0 25 25" fill="none" xmlns="http://www.w3.org/2000/svg">
<path d="M4.5 8.5V6.5C4.5 5.96957 4.71071 5.46086 5.08579 5.08579C5.46086 4.71071 5.96957 4.5 6.5 4.5H8.5M4.5 16.5V18.5C4.5 19.0304 4.71071 19.5391 5.08579 19.9142C5.46086 20.2893 5.96957 20.5 6.5 20.5H8.5M16.5 4.5H18.5C19.0304 4.5 19.5391 4.71071 19.9142 5.08579C20.2893 5.46086 20.5 5.96957 20.5 6.5V8.5M16.5 20.5H18.5C19.0304 20.5 19.5391 20.2893 19.9142 19.9142C20.2893 19.5391 20.5 19.0304 20.5 18.5V16.5M8.5 16.5C8.5 15.9696 8.71071 15.4609 9.08579 15.0858C9.46086 14.7107 9.96957 14.5 10.5 14.5H14.5C15.0304 14.5 15.5391 14.7107 15.9142 15.0858C16.2893 15.4609 16.5 15.9696 16.5 16.5M10.5 9.5C10.5 10.0304 10.7107 10.5391 11.0858 10.9142C11.4609 11.2893 11.9696 11.5 12.5 11.5C13.0304 11.5 13.5391 11.2893 13.9142 10.9142C14.2893 10.5391 14.5 10.0304 14.5 9.5C14.5 8.96957 14.2893 8.46086 13.9142 8.08579C13.5391 7.71071 13.0304 7.5 12.5 7.5C11.9696 7.5 11.4609 7.71071 11.0858 8.08579C10.7107 8.46086 10.5 8.96957 10.5 9.5Z" stroke="black" stroke-width="2" stroke-linecap="round" stroke-linejoin="round"/>
</svg>
