<svg width="24" height="25" viewBox="0 0 24 25" fill="none" xmlns="http://www.w3.org/2000/svg">
<path d="M13.41 11.09L16 8.5M7 12.5C7 11.1739 7.52678 9.90215 8.46447 8.96447C9.40215 8.02678 10.6739 7.5 12 7.5M3 12.5C3 13.6819 3.23279 14.8522 3.68508 15.9442C4.13738 17.0361 4.80031 18.0282 5.63604 18.864C6.47177 19.6997 7.46392 20.3626 8.55585 20.8149C9.64778 21.2672 10.8181 21.5 12 21.5C13.1819 21.5 14.3522 21.2672 15.4442 20.8149C16.5361 20.3626 17.5282 19.6997 18.364 18.864C19.1997 18.0282 19.8626 17.0361 20.3149 15.9442C20.7672 14.8522 21 13.6819 21 12.5C21 11.3181 20.7672 10.1478 20.3149 9.05585C19.8626 7.96392 19.1997 6.97177 18.364 6.13604C17.5282 5.30031 16.5361 4.63738 15.4442 4.18508C14.3522 3.73279 13.1819 3.5 12 3.5C10.8181 3.5 9.64778 3.73279 8.55585 4.18508C7.46392 4.63738 6.47177 5.30031 5.63604 6.13604C4.80031 6.97177 4.13738 7.96392 3.68508 9.05585C3.23279 10.1478 3 11.3181 3 12.5ZM11 12.5C11 12.7652 11.1054 13.0196 11.2929 13.2071C11.4804 13.3946 11.7348 13.5 12 13.5C12.2652 13.5 12.5196 13.3946 12.7071 13.2071C12.8946 13.0196 13 12.7652 13 12.5C13 12.2348 12.8946 11.9804 12.7071 11.7929C12.5196 11.6054 12.2652 11.5 12 11.5C11.7348 11.5 11.4804 11.6054 11.2929 11.7929C11.1054 11.9804 11 12.2348 11 12.5Z" stroke="white" stroke-width="2" stroke-linecap="round" stroke-linejoin="round"/>
</svg>
