<svg width="29" height="27" viewBox="0 0 29 27" fill="none" xmlns="http://www.w3.org/2000/svg">
<path d="M15.3817 2V1.25H14.6317H5.52637C4.55987 1.25 3.77637 2.0335 3.77637 3V8.96145V9.71145H4.52637H14.6317H15.3817V8.96145V2Z" stroke="#605A5A" stroke-width="1.5"/>
<path d="M14.6318 1.25H13.8818V2V8.96145V9.71145H14.6318H24.7371H25.4871V8.96145V3C25.4871 2.0335 24.7036 1.25 23.7371 1.25H14.6318Z" stroke="#605A5A" stroke-width="1.5"/>
<path d="M27.2632 18.7499H28.0132V17.9999V11.4209C28.0132 10.4544 27.2297 9.6709 26.2632 9.6709H3C2.0335 9.6709 1.25 10.4544 1.25 11.4209V17.9999V18.7499H2H27.2632Z" stroke="#605A5A" stroke-width="1.5"/>
<path d="M6.63174 19.2324H3.80469V26.0005H4.94753L6.63174 19.2324Z" fill="#605A5A" stroke="#605A5A"/>
<path d="M25.4589 19.2314H22.6318L24.3161 25.9995H25.4589V19.2314Z" fill="#605A5A" stroke="#605A5A"/>
</svg>
