<svg width="24" height="24" viewBox="0 0 24 24" fill="none" xmlns="http://www.w3.org/2000/svg">
<path d="M6 9.99956C6 8.85356 6.277 7.75456 6.78 6.78056M8.572 4.57256C9.84858 3.52995 11.4521 2.97124 13.1002 2.99486C14.7483 3.01847 16.3352 3.62289 17.5814 4.70166C18.8276 5.78042 19.6531 7.26433 19.9126 8.89202C20.1721 10.5197 19.8489 12.1868 19 13.5996C18.8017 13.8639 18.5905 14.1182 18.367 14.3616M16.322 16.3216C15.7585 17.0026 15.3118 17.7724 15 18.5996C14.6897 19.186 14.2535 19.6965 13.7228 20.0946C13.192 20.4928 12.5798 20.7686 11.93 20.9024C11.2802 21.0362 10.6088 21.0246 9.96393 20.8685C9.31908 20.7125 8.71673 20.4157 8.2 19.9996M11.42 7.41333C11.995 7.05679 12.6736 6.90505 13.3456 6.98274C14.0177 7.06044 14.6437 7.363 15.1222 7.84132C15.6006 8.31964 15.9033 8.94562 15.9812 9.61765C16.059 10.2897 15.9074 10.9683 15.551 11.5433M3 2.99951L21 20.9995" stroke="#605A5A" stroke-width="2" stroke-linecap="round" stroke-linejoin="round"/>
</svg>
