<svg width="24" height="24" viewBox="0 0 24 24" fill="none" xmlns="http://www.w3.org/2000/svg">
<path d="M2 5H4.5L6.132 9.897C6.53021 11.0919 7.29434 12.1312 8.31612 12.8676C9.3379 13.604 10.5655 14.0002 11.825 14H14.5C15.9587 14 17.3576 13.4205 18.3891 12.3891C19.4205 11.3576 20 9.95869 20 8.5C20 7.04131 19.4205 5.64236 18.3891 4.61091C17.3576 3.57946 15.9587 3 14.5 3H14V9M6 9H20M9 17L10 14M16 14L17 17M6 19C6 19.5304 6.21071 20.0391 6.58579 20.4142C6.96086 20.7893 7.46957 21 8 21C8.53043 21 9.03914 20.7893 9.41421 20.4142C9.78929 20.0391 10 19.5304 10 19C10 18.4696 9.78929 17.9609 9.41421 17.5858C9.03914 17.2107 8.53043 17 8 17C7.46957 17 6.96086 17.2107 6.58579 17.5858C6.21071 17.9609 6 18.4696 6 19ZM16 19C16 19.5304 16.2107 20.0391 16.5858 20.4142C16.9609 20.7893 17.4696 21 18 21C18.5304 21 19.0391 20.7893 19.4142 20.4142C19.7893 20.0391 20 19.5304 20 19C20 18.4696 19.7893 17.9609 19.4142 17.5858C19.0391 17.2107 18.5304 17 18 17C17.4696 17 16.9609 17.2107 16.5858 17.5858C16.2107 17.9609 16 18.4696 16 19Z" stroke="#605A5A" stroke-width="2" stroke-linecap="round" stroke-linejoin="round"/>
</svg>
