<svg width="24" height="24" viewBox="0 0 24 24" fill="none" xmlns="http://www.w3.org/2000/svg">
<path d="M19 3L14 8M19 3H15M19 3V7M11 16V22M8 19H14M7 11C7 12.0609 7.42143 13.0783 8.17157 13.8284C8.92172 14.5786 9.93913 15 11 15C12.0609 15 13.0783 14.5786 13.8284 13.8284C14.5786 13.0783 15 12.0609 15 11C15 9.93913 14.5786 8.92172 13.8284 8.17157C13.0783 7.42143 12.0609 7 11 7C9.93913 7 8.92172 7.42143 8.17157 8.17157C7.42143 8.92172 7 9.93913 7 11Z" stroke="#605A5A" stroke-width="2" stroke-linecap="round" stroke-linejoin="round"/>
</svg>
