<?xml version="1.0" standalone="no"?>
<!DOCTYPE svg PUBLIC "-//W3C//DTD SVG 1.1//EN" "http://www.w3.org/Graphics/SVG/1.1/DTD/svg11.dtd" >
<svg xmlns="http://www.w3.org/2000/svg">
<metadata>Generated by IcoMoon</metadata>
<defs>
<font id="icomoon" horiz-adv-x="1024">
<font-face units-per-em="1024" ascent="960" descent="-64" />
<missing-glyph horiz-adv-x="1024" />
<glyph unicode="&#x20;" horiz-adv-x="512" d="" />
<glyph unicode="&#xe900;" glyph-name="ic-baseline-balcony" d="M477.866 872.816c-63.725-6.144-127.725-32.324-179.199-73.284-16.384-13.039-44.851-41.779-56.559-57.139-38.506-50.492-62.573-110.498-69.632-173.602-1.058-9.661-1.809-56.013-1.809-111.344v-94.787h-42.667v-341.334h768v341.334h-42.666v95.13c-0.035 52.394-0.787 102.058-1.741 110.525-8.499 76.184-40.621 145.714-92.093 199.508-73.866 77.175-175.754 115.166-281.635 104.994zM469.334 574.285v-211.626h-213.573l0.683 101.955c0.683 97.827 0.853 102.675 4.506 119.059 17.476 78.573 64.615 141.003 133.223 176.468 23.517 12.151 55.056 23.074 73.898 25.6 0.682 0.102 1.264-95.061 1.264-211.457zM577.264 780.656c18.432-4.574 32.902-10.274 54.17-21.333 67.002-34.816 114.381-98.065 131.616-175.649 3.619-16.352 3.824-21.402 4.506-119.059l0.717-101.955h-213.606v423.321l4.678-1.024c2.592-0.58 10.65-2.526 17.92-4.301zM341.334 490.659v-42.666h85.331v85.331h-85.331v-42.666zM597.334 490.659v-42.666h85.331v85.331h-85.331v-42.666zM298.667 191.994v-85.334h-85.333v170.666h85.333v-85.331zM469.334 191.994v-85.334h-85.334v170.666h85.334v-85.331zM640 191.994v-85.334h-85.334v170.666h85.334v-85.331zM810.666 191.994v-85.334h-85.331v170.666h85.331v-85.331z" />
<glyph unicode="&#xe901;" glyph-name="ic-clothesline" d="M128 458.902v-341.101h54.857v682.198h-54.857v-341.098zM288.942 736.113c-8.102-1.857-24.728-9.368-30.833-13.954-2.729-2.053-2.672-2.138 1.407-2.982 14.544-2.954 64.365-16.823 69.597-19.355 8.272-4.023 17.245-13.138 21.83-22.224 15.446-30.439-2.138-65.576-35.951-71.794-9.002-1.658-9.79-1.546-38.569 5.629-12.862 3.117-25.621 6.646-38.259 10.576-4.895 1.773-8.89 2.925-8.89 2.56 0-0.394 1.632-3.939 3.629-7.933 22.618-45.123 79.979-59.667 122.008-30.944 16.381 11.296 28.198 28.064 33.334 47.29 5.629 20.816 2.224 45.966-8.72 64.196-10.56 16.826-26.458 29.623-45.152 36.347-12.49 4.332-32.745 5.486-45.432 2.588zM394.269 729.305c2.643-3.263 7.229-9.593 10.128-14.066l5.315-8.074h486.288v28.132h-506.57l4.838-5.992zM220.835 692.227c-6.892-1.294-23.912-6.583-23.912-7.427 0.028-0.45 2.56-3.798 5.654-7.427 7.567-8.833 21.014-18.82 33.027-24.531 9.762-4.642 64.366-20.199 70.948-20.228 5.429 0 14.573 5.178 17.949 10.185 4.864 7.23 5.398 14.685 1.546 22.084-1.734 3.385-4.080 6.418-6.92 8.946-2.026 1.463-16.598 6.161-32.352 10.437-26.022 7.033-30.214 7.792-45.546 8.186-6.798 0.272-13.605 0.197-20.396-0.225zM695.504 615.398c-0.365-0.986-0.506-35.248-0.31-76.154l0.368-74.352 74.323-16.512c48.893-10.832 74.522-15.952 74.915-14.938 0.31 0.842 0.422 42.365 0.224 92.272l-0.365 90.723-74.24 0.368c-58.627 0.282-74.381 0-74.915-1.408zM446.733 604.118c0.451-6.358 6.022-93.68 12.352-194.026s11.814-182.746 12.208-183.11c0.758-0.787 63.411 14.544 64.845 15.837 0.506 0.48 4.838 52.467 9.619 115.51 4.784 63.043 9.286 115.258 9.987 115.987 4.192 4.39 5.12-3.405 13.053-111.066 4.419-59.581 8.47-111.12 9.030-114.55l0.986-6.246 32.323-8.074c17.779-4.445 32.522-7.904 32.746-7.651 0.253 0.224 5.766 85.155 12.294 188.736l12.266 194.278 0.422 5.994h-223.002l0.87-11.619zM405.802 595.677c-2.138-3.261-6.33-9.197-9.312-13.136-3.008-3.939-5.456-7.568-5.456-8.074s6.976-0.928 15.472-0.928h15.472v28.131h-6.131c-5.683 0-6.445-0.451-10.045-5.994zM868.176 587.942l0.397-13.699 27.427-0.816v28.243h-28.243l0.419-13.728z" />
<glyph unicode="&#xe902;" glyph-name="ic-adjustments-horizontal" d="M514.371 786.978c22.003 22.004 51.85 34.366 82.966 34.366 31.12 0 60.963-12.362 82.97-34.366 14.282-14.284 24.502-31.872 29.917-50.967h143.114c17.674 0 32-14.327 32-32s-14.326-32-32-32h-143.114c-5.414-19.096-15.635-36.683-29.917-50.967-22.006-22.003-51.85-34.365-82.97-34.365-31.117 0-60.963 12.362-82.966 34.365-14.285 14.285-24.506 31.872-29.917 50.967h-313.782c-17.673 0-32 14.327-32 32s14.327 32 32 32h313.782c5.411 19.095 15.632 36.683 29.917 50.967zM597.338 757.344c-14.144 0-27.709-5.619-37.712-15.621-10-10.002-15.619-23.568-15.619-37.712s5.619-27.71 15.619-37.713c10.003-10.002 23.568-15.621 37.712-15.621 14.147 0 27.712 5.619 37.712 15.621 10.003 10.002 15.622 23.568 15.622 37.713s-5.619 27.71-15.622 37.712c-10 10.002-23.565 15.621-37.712 15.621zM258.371 530.979c22.004 22.003 51.849 34.365 82.966 34.365 31.12 0 60.963-12.362 82.97-34.365 14.282-14.285 24.502-31.872 29.917-50.97h399.114c17.674 0 32-14.326 32-32s-14.326-32-32-32h-399.114c-5.414-19.094-15.635-36.682-29.917-50.966-22.006-22.003-51.85-34.365-82.97-34.365-31.118 0-60.962 12.362-82.966 34.365-14.284 14.285-24.505 31.872-29.918 50.966h-57.781c-17.673 0-32 14.326-32 32s14.327 32 32 32h57.781c5.414 19.098 15.635 36.685 29.918 50.97zM341.338 501.344c-14.144 0-27.709-5.619-37.711-15.622-10.002-10-15.621-23.565-15.621-37.712 0-14.144 5.619-27.709 15.621-37.712 10.002-10 23.567-15.619 37.711-15.619 14.147 0 27.712 5.619 37.712 15.619 10.003 10.003 15.622 23.568 15.622 37.712 0 14.147-5.619 27.712-15.622 37.712-10 10.003-23.565 15.622-37.712 15.622zM642.371 274.979c22.003 22.003 51.85 34.365 82.966 34.365 31.12 0 60.963-12.362 82.97-34.365 14.282-14.285 24.502-31.872 29.917-50.97h15.114c17.674 0 32-14.326 32-32s-14.326-32-32-32h-15.114c-5.414-19.094-15.635-36.682-29.917-50.966-22.006-22.003-51.85-34.365-82.97-34.365-31.117 0-60.963 12.362-82.966 34.365-14.285 14.285-24.506 31.872-29.917 50.966h-441.782c-17.673 0-32 14.326-32 32s14.327 32 32 32h441.782c5.411 19.098 15.632 36.685 29.917 50.97zM725.338 245.344c-14.144 0-27.709-5.619-37.712-15.622-10-10-15.619-23.565-15.619-37.712 0-14.144 5.619-27.709 15.619-37.712 10.003-10 23.568-15.619 37.712-15.619 14.147 0 27.712 5.619 37.712 15.619 10.003 10.003 15.622 23.568 15.622 37.712 0 14.147-5.619 27.712-15.622 37.712-10 10.003-23.565 15.622-37.712 15.622z" />
<glyph unicode="&#xe903;" glyph-name="ic-air-conditioner" d="M32.631 924.010c-10.122-2.131-19.477-6.967-27.068-13.995l-5.564-5.325v-491.416l12.015-42.598c6.622-23.45 13.858-47.139 16.111-52.669 9.523-23.382 32.734-49.802 55.672-63.35 6.007-3.552 17.067-8.499 24.576-11.027 13.175-4.403 15.189-4.573 58.88-5.187 29.901-0.445 47.377 0 51.541 1.229 5.237 1.597 9.994 4.474 13.843 8.365 3.849 3.894 6.669 8.685 8.206 13.939s1.743 10.81 0.599 16.163c-1.144 5.354-3.602 10.339-7.152 14.509-10.65 12.458-11.469 12.627-60.211 13.686-43.076 0.922-43.622 0.957-52.258 5.494-12.166 6.71-22.116 16.816-28.638 29.082-3.755 7.75-30.037 96.906-30.037 101.856 0 1.261 128.888 1.808 431.788 1.808s431.786-0.547 431.786-1.808c0-4.95-26.282-94.106-30.038-101.856-6.522-12.266-16.47-22.371-28.637-29.082-8.637-4.538-9.181-4.573-52.259-5.494-45.056-0.957-47.171-1.296-56.387-8.909-14.986-12.426-15.36-37.821-0.717-50.653 9.558-8.397 14.438-9.046 63.933-8.33 43.69 0.614 45.702 0.784 58.88 5.187 8.493 2.963 16.717 6.65 24.576 11.027 22.867 13.517 46.182 39.968 55.568 63.146 2.218 5.427 13.312 42.701 24.643 82.806l20.653 72.909-0.035 198.452c0 170.906-0.342 199.578-2.56 206.814-7.101 23.45-25.942 41.062-48.47 45.329-11.398 2.184-912.212 2.048-923.237-0.102zM938.666 685.213v-172.374h-887.466v344.748h887.466v-172.373zM766.806 715.011c-5.354-2.662-10-6.558-13.552-11.366-4.163-6.042-4.88-8.67-4.88-18.569 0-10.035 0.646-12.425 5.12-18.773 2.797-3.994 8.499-9.079 12.627-11.264 7.101-3.72 9.318-3.959 39.424-3.959s32.326 0.239 39.424 3.959c4.131 2.185 9.83 7.27 12.63 11.264 4.47 6.349 5.12 8.738 5.12 18.773 0 9.899-0.717 12.527-4.88 18.569-3.555 4.808-8.198 8.704-13.552 11.366-8.33 4.13-10 4.335-38.742 4.335-28.739 0-30.413-0.205-38.739-4.335zM366.659 330.362c-7.875-2.435-14.742-7.373-19.558-14.061-4.71-6.829-4.506-5.19-7.507-55.194-9.456-157.562-50.279-266.547-107.385-286.688-7.088-2.035-14.34-3.453-21.675-4.23-11.503-1.299-15.735-2.63-21.777-6.794-7.68-5.258-14.677-16.554-14.677-23.69v-3.718h126.601l9.489 9.795c29.629 30.618 51.779 72.432 68.643 129.501 17.066 57.824 29.421 142.714 29.763 204.733l0.17 29.149-4.71 6.794c-8.054 11.638-25.293 18.294-37.376 14.403zM486.128 330.362c-8.032-2.493-15.008-7.584-19.834-14.47l-4.64-6.691-0.445-186.608-0.477-186.605h68.403l-0.48 186.605-0.442 186.608-4.71 6.794c-8.058 11.603-25.293 18.227-37.376 14.368zM605.594 330.362c-8.035-2.486-15.011-7.578-19.83-14.47l-4.643-6.726 0.205-30.003c0.41-62.326 12.355-144.758 29.491-203.264 16.589-56.694 39.254-99.498 68.88-130.115l9.491-9.795h126.976l-1.197 6.381c-3.037 16.454-14.573 25.43-35.738 27.821-7.299 0.784-14.515 2.198-21.571 4.23-57.139 20.173-97.93 129.059-107.382 286.688-3.005 50.074-2.765 48.333-7.578 55.296-7.782 11.229-25.226 17.782-37.104 13.958z" />
<glyph unicode="&#xe904;" glyph-name="ic-baby-carriage" d="M565.328 832c0 17.673 14.326 32 32 32h21.334c70.723 0 138.55-28.095 188.56-78.105s78.106-117.837 78.106-188.561c0-5.299-0.157-10.579-0.47-15.837 0.31-1.786 0.47-3.622 0.47-5.498 0-3.904-0.698-7.645-1.978-11.104-7.203-58.771-33.824-113.821-76.128-156.125-25.101-25.101-54.688-44.678-86.88-57.958l28.57-85.709c6.269 1.034 12.65 1.562 19.082 1.562 31.12 0 60.963-12.362 82.97-34.365 22.003-22.003 34.365-51.85 34.365-82.966 0-31.12-12.362-60.963-34.365-82.97-22.006-22.003-51.85-34.365-82.97-34.365-31.117 0-60.963 12.362-82.966 34.365-22.003 22.006-34.365 51.85-34.365 82.97 0 31.117 12.362 60.963 34.365 82.966 1.818 1.818 3.686 3.568 5.606 5.251l-32.038 96.122c-13.139-1.99-26.483-3.008-39.933-3.008h-114.131c0 0-0.003 0-0.003 0-17.926 0-35.715 1.67-53.155 4.944l-32.685-98.058c1.92-1.683 3.789-3.434 5.606-5.251 22.006-22.003 34.368-51.85 34.368-82.966 0-31.12-12.362-60.963-34.368-82.97-22.003-22.003-51.846-34.365-82.966-34.365-31.119 0-60.963 12.362-82.967 34.365-22.004 22.006-34.366 51.85-34.366 82.97 0 31.117 12.362 60.963 34.366 82.966s51.848 34.365 82.967 34.365c6.435 0 12.816-0.528 19.082-1.562l29.744 89.232c-18.966 8.205-37.098 18.47-54.048 30.688-49.045 35.347-85.723 85.232-104.837 142.586l-62.339 187.057h-83.601c-17.673 0-32 14.327-32 32s14.327 32 32 32h106.667c13.774 0 26.003-8.815 30.358-21.883l49.585-148.784h293.39v224zM597.328 544h-304.022c15.2-42.992 43.174-80.355 80.221-107.056 38.147-27.491 83.978-42.285 130.998-42.278h114.138c53.75 0 105.299 21.354 143.306 59.36 25.155 25.155 43.014 56.243 52.218 89.974h-216.858zM821.046 608c-2.624 49.865-23.594 97.155-59.078 132.64s-82.774 56.453-132.64 59.079v-191.719h191.718zM341.328 202.666c-14.144 0-27.71-5.619-37.712-15.619-10.002-10.003-15.621-23.568-15.621-37.712 0-14.147 5.619-27.712 15.621-37.712 10.002-10.003 23.568-15.622 37.712-15.622s27.712 5.619 37.712 15.622c10.003 10 15.622 23.565 15.622 37.712 0 14.144-5.619 27.709-15.622 37.712-10 10-23.568 15.619-37.712 15.619zM767.994 202.666c-14.144 0-27.709-5.619-37.712-15.619-10-10.003-15.619-23.568-15.619-37.712 0-14.147 5.619-27.712 15.619-37.712 10.003-10.003 23.568-15.622 37.712-15.622 14.147 0 27.712 5.619 37.712 15.622 10.003 10 15.622 23.565 15.622 37.712 0 14.144-5.619 27.709-15.622 37.712-10 10-23.565 15.619-37.712 15.619z" />
<glyph unicode="&#xe905;" glyph-name="ic-baseline-density-medium" d="M138.672 789.344c0 17.673 14.327 32 32 32h682.666c17.674 0 32-14.327 32-32s-14.326-32-32-32h-682.666c-17.673 0-32 14.327-32 32zM138.672 448.010c0 17.674 14.327 32 32 32h682.666c17.674 0 32-14.326 32-32s-14.326-32-32-32h-682.666c-17.673 0-32 14.326-32 32zM138.672 106.678c0 17.67 14.327 32 32 32h682.666c17.674 0 32-14.33 32-32 0-17.674-14.326-32-32-32h-682.666c-17.673 0-32 14.326-32 32z" />
<glyph unicode="&#xe906;" glyph-name="ic-bath" d="M324.957 862.632c-24.927-3.008-46.847-14.048-66.207-33.344-13.607-13.228-23.789-29.571-29.664-47.616l-4.672-13.664-0.48-143.777-0.48-143.808-25.984-0.032c-32.064-0.032-47.104-2.080-59.232-8.096-12.48-6.144-29.696-23.328-34.912-34.848-7.456-16.32-8.096-26.272-7.296-109.184 0.64-64.992 1.248-79.424 3.712-90.176 9.376-41.056 26.336-72.768 54.496-101.952l15.2-15.808-13.824-20.896c-16.032-24.224-18.176-29.312-16.608-39.616 2.848-19.040 21.536-31.552 39.776-26.624 10.432 2.784 14.752 7.2 31.392 32.032 11.712 17.536 16.064 22.784 18.24 22.048 15.979-5.216 32.398-8.976 49.056-11.232 21.792-2.432 447.263-2.432 469.055 0 10.486 1.296 20.867 3.315 31.072 6.048 8.32 2.368 16.576 4.448 18.304 4.64 2.304 0.224 7.424-5.92 18.784-22.688 8.736-12.864 18.080-24.672 21.184-26.752 22.656-15.104 53.536 5.152 48.992 32.096-0.736 4.288-6.432 14.784-15.712 28.864l-14.56 22.144 15.2 15.744c28.128 29.184 45.088 60.896 54.464 101.952 2.464 10.752 3.072 25.184 3.712 90.176 0.8 82.912 0.16 92.864-7.296 109.184-5.216 11.52-22.432 28.704-34.912 34.848-6.803 3.046-13.981 5.187-21.344 6.368-7.552 1.088-115.104 1.728-293.984 1.728l-282.047 0.032 0.448 140.384 0.448 140.385 3.936 8c5.056 10.24 15.36 20.544 25.6 25.6 7.807 3.84 9.471 3.936 63.039 4.416l55.040 0.512v-34.688c0-32.608 0.256-35.136 3.84-42.208 2.112-4.128 6.816-9.888 10.4-12.736 5.888-4.672 7.808-5.216 18.208-5.216s12.32 0.544 18.176 5.216c3.616 2.848 8.288 8.608 10.4 12.736 3.744 7.296 3.84 8.928 3.84 59.616 0 30.592-0.736 54.752-1.792 58.464-2.643 8.339-8.32 15.383-15.904 19.744-4.768 2.624-12.8 2.944-76.16 3.168-38.976 0.16-76.288-0.384-82.944-1.184zM860.861 412.326c2.688-2.976 2.88-9.44 2.336-82.336-0.608-77.28-0.704-79.392-4.544-91.040-7.968-24.064-18.4-41.376-35.136-58.208-17.856-18.016-32.096-27.008-55.52-35.168l-16.224-5.632h-479.551l-16.224 5.632c-20.8 7.232-36.512 16.608-51.36 30.592-19.168 18.112-30.336 35.968-39.264 62.784-3.872 11.68-3.968 13.6-4.576 91.040-0.544 72.896-0.352 79.36 2.336 82.336 2.88 3.168 11.232 3.264 348.863 3.264s345.984-0.096 348.864-3.264z" />
<glyph unicode="&#xe907;" glyph-name="ic-bed" d="M132.188 880v-280.688h-84.188v-348.624h108.14v-218.688h38.093l54.42 218.688h536.798l54.403-218.624h38.096v218.624h108.128v348.624h-84.202v280.688h-769.691zM469.018 832h0.029v-232.042h-288.859v232.042h288.83zM565.018 832h288.861v-232.042h-288.861v232.042zM96 551.312h842.080v-252.624h-842.080v252.624z" />
<glyph unicode="&#xe908;" glyph-name="ic-bell-ringing" d="M747.674 852.983c-11.59-13.343-10.166-33.554 3.174-45.143 49.261-42.782 88.835-95.572 116.086-154.852 7.382-16.057 26.384-23.091 42.442-15.708s23.091 26.384 15.709 42.442c-31.053 67.543-76.144 127.691-132.269 176.437-13.344 11.589-33.555 10.167-45.142-3.177zM244.248 852.993c-11.594 13.338-31.806 14.752-45.144 3.158-56.091-48.756-101.15-108.904-132.174-176.438-7.378-16.060-0.34-35.059 15.72-42.436 16.060-7.379 35.059-0.339 42.437 15.72 27.229 59.271 66.775 112.060 116.004 154.851 13.339 11.594 14.753 31.806 3.158 45.145zM496.006 799.999c15.088 0 29.558-5.994 40.227-16.662s16.662-25.139 16.662-40.227c0-12.374 7.136-23.639 18.32-28.929 45.792-21.652 84.829-55.357 112.925-97.5 27.962-41.942 44.038-90.672 46.534-141.008v-132.563c0-1.286 0.077-2.57 0.23-3.846 3.949-32.605 15.494-63.827 33.712-91.155 1.427-2.138 2.893-4.25 4.394-6.333h-546.006c1.501 2.083 2.965 4.195 4.392 6.333 18.218 27.328 29.765 58.55 33.712 91.155 0.155 1.277 0.232 2.56 0.232 3.846v132.563c2.495 50.336 18.573 99.066 46.534 141.008 28.096 42.143 67.132 75.848 112.921 97.5 11.187 5.29 18.323 16.555 18.323 28.929 0 15.088 5.994 29.558 16.662 40.227s25.136 16.662 40.224 16.662zM597.341 177.776v-12.442c0-26.877-10.675-52.653-29.68-71.654-19.005-19.005-44.778-29.68-71.654-29.68-26.874 0-52.65 10.675-71.651 29.68-19.005 19.002-29.68 44.778-29.68 71.654v12.442h202.666zM330.675 177.776v-12.442c0-43.85 17.418-85.904 48.426-116.909 31.005-31.008 73.059-48.426 116.906-48.426 43.85 0 85.904 17.418 116.909 48.426 31.008 31.005 48.426 73.059 48.426 116.909v12.442h190.224c14.531 0 27.238 9.795 30.944 23.85 3.702 14.051-2.531 28.835-15.178 35.997-19.859 11.248-36.803 26.998-49.462 45.987-12.32 18.483-20.25 39.526-23.194 61.526v131.309c0 0.499-0.013 0.998-0.035 1.501-2.922 62.195-22.71 122.426-57.248 174.236-31.101 46.65-73.104 84.887-122.253 111.471-4.214 24.438-15.882 47.17-33.651 64.94-22.669 22.671-53.418 35.407-85.482 35.407-32.061 0-62.81-12.736-85.478-35.407-17.773-17.77-29.437-40.502-33.651-64.94-49.152-26.584-91.153-64.821-122.252-111.471-34.539-51.81-54.329-112.040-57.248-174.236-0.023-0.502-0.035-1.002-0.035-1.501v-131.309c-2.944-22-10.874-43.043-23.195-61.526-12.66-18.989-29.602-34.739-49.462-45.987-12.646-7.162-18.879-21.946-15.176-35.997 3.703-14.054 16.411-23.85 30.944-23.85h190.223z" />
<glyph unicode="&#xe909;" glyph-name="ic-bolt" d="M546.336 862.787c-3.645-1.001-7.104-2.59-10.24-4.704-7.424-5.472-351.551-479.904-353.631-487.584-2.032-8.006-0.879-16.486 3.215-23.661s10.811-12.48 18.737-14.803c4.096-1.152 46.912-1.792 119.423-1.792h113.056v-134.208c0-100.224 0.544-135.936 2.080-141.088 6.016-20.096 30.624-29.216 47.712-17.696 7.776 5.28 352.48 479.456 354.848 488.16 1.056 4.077 1.286 8.32 0.678 12.486-0.605 4.166-2.035 8.17-4.208 11.773-2.173 3.606-5.043 6.742-8.442 9.226s-7.261 4.262-11.357 5.235c-3.68 0.864-57.184 1.568-118.88 1.6l-112.16 0.032-0.48 136.96c-0.448 135.136-0.48 137.056-4 143.776-3.437 6.324-8.854 11.344-15.424 14.287-6.566 2.943-13.92 3.646-20.928 2.001zM526.016 518.595c3.968-7.232 12.064-13.76 19.744-15.904 4.032-1.12 42.080-1.76 103.968-1.76l97.6-0.032-244.704-336.8-0.864 103.968c-0.928 113.024-0.544 108.832-10.496 117.856-9.408 8.512-6.272 8.256-113.344 9.184l-100.831 0.832 244.287 335.904 0.864-103.936c0.768-93.952 1.12-104.48 3.776-109.312z" />
<glyph unicode="&#xe90a;" glyph-name="ic-building-store" d="M184.712 888.967c5.42 10.841 16.501 17.689 28.622 17.689h597.332c12.122 0 23.203-6.848 28.624-17.689l85.331-170.667c2.224-4.444 3.379-9.343 3.379-14.311v-42.667c0-42.433-16.858-83.131-46.864-113.137-11.434-11.437-24.422-20.96-38.47-28.371v-381.158h53.334c17.674 0 32-14.326 32-32s-14.326-32-32-32h-84.813c-0.173-0.003-0.346-0.003-0.522-0.003-0.173 0-0.346 0-0.518 0.003h-596.293c-0.173-0.003-0.347-0.003-0.521-0.003s-0.348 0-0.521 0.003h-84.813c-17.673 0-32 14.326-32 32s14.327 32 32 32h53.333v381.158c-14.046 7.411-27.035 16.934-38.47 28.371-30.006 30.006-46.863 70.704-46.863 113.137v42.667c0 4.968 1.157 9.868 3.378 14.311l85.333 170.667zM245.333 501.68v-363.024h106.667v138.666c0 31.12 12.362 60.963 34.365 82.97 22.006 22.003 51.85 34.365 82.97 34.365h85.331c31.12 0 60.963-12.362 82.97-34.365 22.003-22.006 34.365-51.85 34.365-82.97v-138.666h106.666v363.024c-3.539-0.237-7.094-0.358-10.666-0.358-42.435 0-83.133 16.858-113.136 46.864-5.386 5.386-10.349 11.114-14.864 17.136-4.515-6.022-9.478-11.75-14.864-17.136-30.003-30.006-70.701-46.864-113.136-46.864s-83.133 16.858-113.136 46.864c-5.386 5.386-10.349 11.114-14.864 17.136-4.515-6.022-9.478-11.75-14.864-17.136-30.003-30.006-70.701-46.864-113.136-46.864-3.57 0-7.127 0.122-10.667 0.358zM416 661.323c0-25.46 10.115-49.88 28.118-67.883s42.422-28.118 67.882-28.118c25.462 0 49.878 10.115 67.882 28.118s28.118 42.422 28.118 67.883v10.667h-192v-10.667zM352 671.989h-192v-10.667c0-25.46 10.114-49.88 28.118-67.883s42.421-28.118 67.882-28.118c25.461 0 49.879 10.115 67.882 28.118s28.118 42.422 28.118 67.883v10.667zM384 735.989h460.224l-53.334 106.667h-557.779l-53.333-106.667h204.223zM864 671.989h-192v-10.667c0-25.46 10.115-49.88 28.118-67.883s42.422-28.118 67.882-28.118c25.462 0 49.878 10.115 67.882 28.118s28.118 42.422 28.118 67.883v10.667zM608 138.656v138.666c0 14.147-5.619 27.712-15.622 37.715-10 10-23.565 15.619-37.712 15.619h-85.331c-14.147 0-27.712-5.619-37.712-15.619-10.003-10.003-15.622-23.568-15.622-37.715v-138.666h192z" />
<glyph unicode="&#xe90b;" glyph-name="ic-calendar-time" d="M264.421 864c17.673 0 32-14.327 32-32v-52.211h272.843v52.211c0 17.673 14.326 32 32 32s32-14.327 32-32v-52.211h52.211c30.819 0 60.378-12.244 82.173-34.037 21.792-21.794 34.035-51.352 34.035-82.173v-168.42c0-17.674-14.326-32-32-32h-641.683v-304.842c0-13.85 5.501-27.13 15.292-36.918 9.791-9.792 23.071-15.293 36.918-15.293h286.106c17.674 0 32-14.326 32-32s-14.326-32-32-32h-286.106c-30.821 0-60.38 12.243-82.173 34.038-21.794 21.792-34.037 51.35-34.037 82.173v505.262c0 30.821 12.244 60.38 34.037 82.173s51.352 34.037 82.173 34.037h52.211v52.211c0 17.673 14.327 32 32 32zM232.421 715.789h-52.211c-13.847 0-27.127-5.501-36.918-15.292s-15.292-23.071-15.292-36.918v-136.42h609.683v136.42c0 13.847-5.501 27.127-15.29 36.918-9.792 9.791-23.072 15.292-36.918 15.292h-52.211v-52.211c0-17.673-14.326-32.001-32-32.001s-32 14.328-32 32.001v52.211h-272.843v-52.211c0-17.673-14.327-32.001-32-32.001s-32 14.328-32 32.001v52.211zM585.859 342.141c37.587 37.584 88.563 58.701 141.718 58.701s104.134-21.117 141.722-58.701c37.584-37.587 58.701-88.563 58.701-141.718s-21.117-104.134-58.701-141.722c-37.587-37.584-88.566-58.701-141.722-58.701s-104.131 21.117-141.718 58.701c-37.584 37.587-58.701 88.566-58.701 141.722s21.117 104.131 58.701 141.718zM727.578 336.842c-36.179 0-70.88-14.371-96.464-39.955s-39.955-60.285-39.955-96.464c0-36.182 14.371-70.883 39.955-96.464 25.584-25.584 60.285-39.958 96.464-39.958 36.182 0 70.883 14.374 96.464 39.958 25.584 25.581 39.958 60.282 39.958 96.464 0 36.179-14.374 70.88-39.958 96.464-25.581 25.584-60.282 39.955-96.464 39.955zM727.578 295.744c17.674 0 32-14.326 32-32v-50.074l32.733-32.73c12.499-12.499 12.499-32.758 0-45.258-12.496-12.496-32.758-12.496-45.254 0l-42.106 42.106c-6 6.003-9.373 14.141-9.373 22.627v63.328c0 17.674 14.33 32 32 32z" />
<glyph unicode="&#xe90c;" glyph-name="ic-car-garage" d="M502.63 904.74c-13.76-4.544-389.312-172.288-394.688-176.288-14.784-11.040-15.904-33.28-2.336-46.848 6.912-6.912 18.144-10.912 26.592-9.472 2.848 0.48 89.088 38.176 191.648 83.776s187.232 82.912 188.16 82.912c0.928 0 85.6-37.312 188.16-82.912s188.8-83.296 191.648-83.776c8.448-1.44 19.68 2.56 26.592 9.472 13.568 13.568 12.448 35.808-2.336 46.848-7.424 5.536-393.024 176.512-400.64 177.632-4.314 0.389-8.662-0.068-12.8-1.344zM207.366 606.851c-8.192-2.016-15.68-6.528-19.328-11.68-1.888-2.624-23.232-53.888-47.488-113.952l-44.096-109.152-0.48-133.664c-0.352-94.624 0.096-135.712 1.44-140.736 2.432-8.992 12.352-19.040 21.248-21.536 3.744-1.024 20.192-1.888 36.864-1.888h30.048l3.648-9.952c7.904-21.76 28.672-46.176 49.952-58.784 5.984-3.552 16.992-8.48 24.512-10.944 11.808-3.904 16.512-4.512 34.976-4.512 18.496 0 23.168 0.608 35.008 4.512 7.488 2.464 18.528 7.392 24.512 10.944 21.28 12.608 42.016 37.024 49.952 58.784l3.648 9.952h200.448l3.648-9.952c7.936-21.76 28.672-46.176 49.952-58.784 5.984-3.552 17.024-8.48 24.512-10.944 11.84-3.904 16.512-4.512 35.008-4.512 18.464 0 23.168 0.608 34.976 4.512 8.483 2.902 16.688 6.563 24.512 10.944 21.28 12.608 42.048 37.024 49.952 58.784l3.648 9.952h30.048c16.672 0 33.12 0.864 36.864 1.888 8.992 2.528 18.816 12.544 21.312 21.728 1.376 5.216 1.792 34.976 1.408 104.064l-0.544 96.736-4.64 13.664c-5.84 18.054-16.016 34.403-29.632 47.616-25.504 25.44-51.552 34.88-97.088 35.232l-13.664 0.096-82.112 102.88c-65.312 81.792-83.456 103.52-88.736 106.144-6.432 3.168-12.736 3.296-202.912 3.552-107.936 0.16-198.56-0.288-201.376-0.992zM479.59 469.347v-74.24h-152.032c-90.624 0-151.808 0.608-151.488 1.536l29.6 74.24 28.992 72.64 244.928 0.064v-74.24zM640.87 470.691c31.904-40 58.272-73.344 58.592-74.144s-34.432-1.44-77.248-1.44h-77.792v148.48l38.4-0.192 58.048-72.704zM833.19 325.443c10.24-5.024 20.544-15.36 25.6-25.6 3.904-7.936 3.936-8.48 4.416-84.384l0.48-76.352h-25.248l-3.648 9.952c-7.68 21.152-28.448 45.888-48.704 58.080-36.128 21.76-85.376 21.76-121.504 0-20.224-12.192-40.992-36.928-48.704-58.080l-3.648-9.952h-200.448l-3.648 9.952c-7.712 21.152-28.48 45.888-48.704 58.080-36.128 21.76-85.376 21.76-121.504 0-20.256-12.192-41.024-36.928-48.704-58.080l-3.648-9.952h-25.152v191.168l664.768-0.896 8-3.936zM321.19 154.755c10.208-4.992 20.544-15.328 25.6-25.568 3.168-6.464 3.936-10.816 3.936-22.528 0-17.408-3.712-26.464-15.744-38.336-25.216-24.864-68.544-16.768-84.32 15.776-4.736 9.76-6.176 26.464-3.168 37.152 4.16 14.88 18.368 30.016 33.536 35.776 9.888 3.744 30.176 2.592 40.16-2.272zM747.846 154.755c10.208-4.992 20.544-15.328 25.6-25.568 5.664-11.488 5.632-33.568-0.032-45.088-19.808-40.224-76.576-40.224-96.096 0-4.736 9.76-6.144 26.464-3.168 37.152 4.16 14.88 18.368 30.016 33.536 35.776 9.888 3.744 30.208 2.592 40.16-2.272z" />
<glyph unicode="&#xe90d;" glyph-name="ic-cart" d="M816 112c0-44.4-35.6-80-80-80-21.216 0-41.565 8.429-56.57 23.43-15.002 15.005-23.43 35.354-23.43 56.57 0 44.4 35.6 80 80 80 21.216 0 41.565-8.429 56.57-23.43 15.002-15.005 23.43-35.354 23.43-56.57zM336 192c-44.4 0-80-35.6-80-80 0-21.216 8.428-41.565 23.431-56.57 15.003-15.002 35.351-23.43 56.569-23.43 44.4 0 80 35.6 80 80s-35.6 80-80 80zM344 326.8l-1.2-4.8c0-5.6 4.4-10 10-10h463.2v-80h-480c-21.217 0-41.566 8.429-56.569 23.43-15.003 15.005-23.431 35.354-23.431 56.57 0 14 3.6 27.2 9.6 38.4l54.4 98-144 303.6h-80v80h130.8l37.6-80h591.6c22 0 40-18 40-40 0-6.8-2-13.6-4.8-20l-143.2-258.8c-13.6-24.4-40-41.2-70-41.2h-298l-36-65.2zM396 472h60v80h-97.6l37.6-80zM496 552v-80h120v80h-120zM616 592v80h-120v-80h120zM740.4 552h-84.4v-80h40l44.4 80zM807.2 672h-151.2v-80h106.8l44.4 80zM301.6 672l37.6-80h116.8v80h-154.4z" />
<glyph unicode="&#xe90e;" glyph-name="ic-checkbox" d="M196 800c-18.035 0-35.331-7.164-48.083-19.917s-19.917-30.048-19.917-48.083v-600c0-18.035 7.164-35.331 19.917-48.083s30.049-19.917 48.083-19.917h600c18.035 0 35.331 7.165 48.083 19.917s19.917 30.048 19.917 48.083v300c0 17.674 14.326 32 32 32s32-14.326 32-32v-300c0-35.008-13.907-68.582-38.662-93.338s-58.33-38.662-93.338-38.662h-600c-35.009 0-68.583 13.907-93.338 38.662s-38.662 58.33-38.662 93.338v600c0 35.009 13.907 68.583 38.662 93.338s58.33 38.662 93.338 38.662h450c17.674 0 32-14.327 32-32s-14.326-32-32-32h-450zM873.373 754.628c12.496 12.497 32.758 12.497 45.254 0s12.496-32.758 0-45.255l-400-400c-12.496-12.496-32.758-12.496-45.254 0l-150 150c-12.497 12.496-12.497 32.758 0 45.254s32.758 12.496 45.254 0l127.373-127.373 377.373 377.373z" />
<glyph unicode="&#xe90f;" glyph-name="ic-clock" d="M440.794 892.443c-86.246-10.88-167.853-45.215-235.936-99.264-21.504-17.184-54.176-49.984-71.328-71.616-51.038-64.461-84.42-141.096-96.864-222.366-3.872-24.96-5.312-85.824-2.592-110.784 6.336-58.56 20.768-109.344 45.472-159.84 50.133-103.152 136.811-183.987 243.2-226.816 22.752-9.152 29.664-10.56 38.080-7.776 18.528 6.112 27.84 26.432 19.936 43.552-4.768 10.336-9.568 13.728-32.448 23.008-93.088 37.632-167.392 106.432-210.816 195.168-28.384 58.016-40.672 111.776-40.608 177.792 0.032 63.36 12.48 116.896 40.384 174.080 39.488 80.798 99.616 141.374 180.16 181.502 38.512 19.721 80.042 32.893 122.88 38.976 27.488 4.128 83.872 4.064 111.776-0.16 115.52-17.472 213.728-79.712 277.664-175.968 40.064-60.35 61.504-127.806 65.984-207.614 1.152-20.448 1.792-24.032 5.312-29.152 11.552-16.864 33.088-19.904 47.872-6.752 10.4 9.248 11.936 16.896 10.112 49.952-6.448 116.077-56.47 225.444-140.064 306.238-75.968 73.408-172.928 118.656-276 128.8-24.192 2.368-78.912 1.856-102.176-0.96zM483.834 701.691c-3.584-1.838-6.909-4.14-9.888-6.848-10.048-9.44-9.728-4.96-9.728-143.006 0-125.568 0.032-126.72 3.616-134.144 7.2-14.88 25.568-21.344 41.088-14.464 10.048 4.416 16.288 12.832 18.496 24.768 1.152 6.144 1.6 52.512 1.28 130.4l-0.48 120.862-3.872 7.232c-7.456 13.952-27.2 21.344-40.512 15.2zM483.77 317.661c-5.597-2.454-10.378-6.451-13.786-11.52-3.408-5.072-5.306-11.008-5.466-17.114-0.16-6.109 1.418-12.134 4.557-17.379 3.136-5.242 7.699-9.485 13.158-12.227 6.24-3.168 10.688-3.456 61.632-3.968l54.912-0.512 4.384-4.416c4.384-4.352 4.416-4.512 4.416-33.088 0-16.768-0.768-30.368-1.824-32.704-3.712-8.128-6.912-8.768-46.816-9.76l-37.568-0.928-11.904-5.952c-14.208-7.104-29.44-21.408-35.456-33.28-8.704-17.216-9.792-24.32-9.792-63.296 0-39.36 1.536-48.544 10.72-64.192 5.376-9.216 22.272-25.44 31.168-29.952 16.416-8.384 21.696-8.96 82.88-8.96 36.544 0 59.36 0.672 62.432 1.824 10.4 3.936 20.896 18.624 20.96 29.376 0.096 9.696-8.48 23.648-17.888 29.12-2.304 1.344-21.504 2.272-60 2.848l-56.64 0.832-4.384 4.16-4.416 4.128 0.064 30.848c0.032 21.568 0.672 31.648 2.144 33.568 4.48 5.824 9.312 6.656 39.072 6.688 44.064 0.032 58.624 4.576 78.432 24.384 11.232 11.232 18.912 25.696 21.952 41.408 3.040 15.616 1.44 75.744-2.336 87.328-6.72 20.672-26.88 41.6-48.32 50.176-9.664 3.84-11.648 3.968-70.528 4.416-48.128 0.384-61.632 0-65.76-1.856zM770.042 316.477c-4.554-2.496-8.602-5.818-11.936-9.792l-4.608-6.048v-129.984l5.472-11.648c6.912-14.624 24.544-32.768 38.048-39.072 14.944-7.008 26.624-8.512 61.44-7.776 17.376 0.352 32.896 1.248 34.56 2.016 2.816 1.312 2.976-2.144 2.976-59.68 0-58.784 0.128-61.376 3.616-68.576 6.624-13.664 24.544-20.864 39.584-15.904 8.928 2.944 17.504 13.312 19.776 23.904 2.624 12.256 2.624 288.288 0 300.544-5.984 27.936-41.664 34.304-58.048 10.4-4.064-5.952-4.064-5.984-4.928-69.568-0.736-56.032-1.152-63.456-3.424-62.048-1.408 0.896-14.848 1.664-29.856 1.664-29.344 0.032-37.76 1.408-42.848 7.040-3.008 3.328-3.296 7.648-4.096 60.288-0.832 56.448-0.864 56.704-4.96 62.688-9.6 13.984-26.528 18.784-40.768 11.552z" />
<glyph unicode="&#xe910;" glyph-name="ic-credit-card" d="M331.366 362.736c90.922 0 164.63 73.709 164.63 164.634 0 13.539-1.635 26.694-4.717 39.283-1.514-2.246-3.341-4.336-5.475-6.205l-152.422-133.366c-12.678-11.094-31.787-10.458-43.7 1.453l-95.263 95.264c-12.497 12.496-12.497 32.758 0 45.254s32.758 12.496 45.255 0l74.094-74.093 129.889 113.654c7.526 6.586 17.267 9.011 26.416 7.469-29.261 45.658-80.451 75.917-138.707 75.917-90.924 0-164.632-73.709-164.632-164.63 0-90.925 73.708-164.634 164.632-164.634zM553.696 473.83c-24.099-100.442-114.496-175.094-222.33-175.094-39.186 0-76.068 9.859-108.304 27.229v-62.845c0-35.344 28.654-64 64-64h489.171c35.344 0 64 28.656 64 64v210.71h-286.538zM159.062 377.085c-35.078 40.182-56.328 92.752-56.328 150.285 0 126.268 102.362 228.63 228.632 228.63 73.466 0 138.838-34.652 180.669-88.502-2.531 3.26-5.152 6.449-7.853 9.565h272.051c70.691 0 128-57.309 128-128v-285.942c0-24.038-6.627-46.528-18.154-65.744h16.861c17.674 0 32-14.326 32-32s-14.326-32-32-32h-152.422c-3.661 0-7.178 0.614-10.451 1.744h-453.005c-70.692 0-128 57.309-128 128v113.965zM543.395 613.062c9.469-23.402 15.174-48.73 16.368-75.232h280.47v11.232c0 35.347-28.656 64-64 64h-232.838z" />
<glyph unicode="&#xe911;" glyph-name="ic-cupboard" d="M206.629 823.040c-7.392-11.136-11.104-21.984-13.312-38.688-1.088-8.32-1.536-120.544-1.216-314.176l0.512-301.216 4.096-10.144c4.608-11.424 16.064-24.704 26.72-30.944 8.48-4.992 30.944-10.976 41.152-10.976h7.392v-52.896h78.497v52.896h315.744v-52.896h78.496v52.896h7.328c9.536 0 24.768 4.032 35.168 9.312 10.56 5.344 21.184 17.408 26.144 29.696l3.904 9.632v641.728l-3.936 8.512c-1.978 4.424-4.515 8.576-7.552 12.352l-3.616 3.872h-589.569l-5.952-8.96zM487.014 485.536v-303.776h-242.337v607.584h242.337v-303.808zM760.070 485.536v-303.776h-230.4v607.584h230.4v-303.808zM353.894 477.856v-58.88h64.864v117.76h-64.864v-58.88zM592.838 477.856v-58.88h63.136v117.76h-63.136v-58.88z" />
<glyph unicode="&#xe912;" glyph-name="ic-dining-room" d="M637.75 753.251c-83.898-83.524-83.59-83.183-91.92-107.247-9.763-28.228-2.662-65.911 16.691-88.507l6.349-7.408-56.867-56.867-303.444 303.446-11.469-10.069c-50.62-44.544-67.413-108.885-44.032-168.686 10.274-26.285 11.571-27.718 125.747-142.202l107.726-107.962-249.14-249.139 22.63-22.598 22.596-22.63 249.175 249.139 60.621-60.55 80.144 80.211 268.8-268.765 45.43 45.296-329.555 329.216 56.934 57.002 9.146-7.066c12.973-10 26.624-15.77 44.749-18.842 14.406-2.458 16.896-2.458 30.074 0.17 29.83 5.872 29.251 5.395 118.202 94.618l79.565 79.839-44.202 44.305-76.426-76.048c-47.034-46.832-78.778-77.142-82.637-78.883-3.494-1.606-7.254-2.566-11.091-2.832-5.53 0.032-18.298 5.427-20.208 8.531-0.854 1.366 27.955 31.334 83.421 86.803l84.72 84.718-21.811 21.743c-11.981 11.947-22.528 21.743-23.485 21.743-0.922 0-39.526-37.82-85.776-84.070l-84.106-84.037-3.344 4.269c-3.798 4.643-5.978 10.397-6.205 16.394-0.227 5.994 1.507 11.898 4.941 16.816 1.946 2.867 37.002 38.776 77.926 79.873l74.378 74.684-22.39 22.357-22.358 22.392-79.498-79.155zM404.074 510.803l123.325-123.427-34.202-34.064-134.794 134.79c-147.763 147.763-144.281 143.805-146.534 166.060-1.229 12.425 0.137 29.082 3.072 36.796l1.843 4.847 31.983-30.788c17.579-16.93 87.485-86.322 155.306-154.213z" />
<glyph unicode="&#xe913;" glyph-name="ic-ear-off" d="M558.483 799.941c-62.784 0.9-123.872-20.384-172.502-60.103-13.69-11.18-33.846-9.146-45.027 4.542-11.178 13.688-9.146 33.847 4.544 45.026 60.304 49.251 136.051 75.643 213.904 74.528s152.813-29.667 211.68-80.626c58.867-50.959 97.866-121.056 110.125-197.946 12.259-76.886-3.008-155.635-43.11-222.374-0.563-0.938-1.174-1.846-1.83-2.72-9.094-12.125-18.787-23.789-29.034-34.954-11.955-13.018-32.195-13.882-45.216-1.93-13.018 11.955-13.882 32.195-1.93 45.216 8.445 9.197 16.451 18.79 23.987 28.749 31.715 53.52 43.731 116.467 33.93 177.936-9.885 62.010-41.334 118.538-88.81 159.634-47.472 41.096-107.926 64.121-170.71 65.021zM105.372 854.367c12.497 12.497 32.758 12.497 45.255 0l568.294-568.293c0.093-0.093 0.186-0.186 0.278-0.278l199.427-199.427c12.496-12.499 12.496-32.758 0-45.254-12.496-12.499-32.758-12.499-45.254 0l-173.29 173.286c-12.144-18.675-22.256-38.637-30.141-59.549-0.474-1.261-1.027-2.49-1.658-3.68-15.446-29.19-37.158-54.605-63.578-74.422s-56.893-33.549-89.242-40.208c-32.346-6.659-65.766-6.083-97.866 1.686s-62.083 22.541-87.805 43.254c-13.764 11.085-15.936 31.229-4.851 44.995 11.085 13.763 31.229 15.936 44.995 4.851 18.371-14.797 39.789-25.347 62.717-30.899 22.928-5.549 46.8-5.958 69.904-1.203 23.104 4.758 44.874 14.566 63.744 28.72 18.368 13.779 33.549 31.344 44.522 51.498 11.014 28.72 25.523 55.933 43.178 81.040l-353.527 353.526c-8.145-25.709-12.476-52.944-12.476-80.938 0-17.674-14.327-32-32-32s-32 14.326-32 32c0 45.862 9.405 90.17 26.762 130.651l-145.389 145.389c-12.497 12.497-12.497 32.758 0 45.255zM565.738 630c-21.504 2.486-43.219-2.368-61.619-13.779-15.018-9.315-34.746-4.688-44.058 10.33-9.315 15.021-4.691 34.747 10.33 44.061 30.666 19.015 66.854 27.108 102.698 22.965s69.232-20.28 94.749-45.791c25.517-25.511 41.661-58.896 45.814-94.736 4.15-35.843-3.933-72.035-22.941-102.704-9.309-15.021-29.037-19.651-44.058-10.342-15.021 9.312-19.651 29.037-10.342 44.058 11.405 18.4 16.256 40.118 13.766 61.622-2.493 21.504-12.179 41.536-27.488 56.842-15.312 15.306-35.344 24.989-56.851 27.475z" />
<glyph unicode="&#xe914;" glyph-name="ic-file-description" d="M298.661 800c-14.145 0-27.71-5.619-37.712-15.621s-15.621-23.567-15.621-37.712v-597.332c0-14.147 5.619-27.712 15.621-37.712 10.002-10.003 23.567-15.622 37.712-15.622h426.667c14.144 0 27.712 5.619 37.712 15.622 10.003 10 15.622 23.565 15.622 37.712v437.331h-138.669c-19.802 0-38.794 7.869-52.797 21.872-14.003 14-21.869 32.993-21.869 52.796v138.667h-266.667zM629.328 754.745v-93.412c0-2.829 1.123-5.542 3.123-7.543s4.714-3.124 7.542-3.124h93.414l-104.080 104.079zM215.694 829.634c22.004 22.004 51.848 34.366 82.967 34.366h298.667c8.486 0 16.627-3.372 22.627-9.372l213.334-213.333c6-6.001 9.373-14.142 9.373-22.628v-469.331c0-31.12-12.362-60.963-34.368-82.97-22.003-22.003-51.846-34.365-82.966-34.365h-426.667c-31.119 0-60.963 12.362-82.967 34.365-22.004 22.006-34.366 51.85-34.366 82.97v597.332c0 31.119 12.362 60.963 34.366 82.967zM351.994 405.334c0 17.674 14.33 32 32 32h256c17.674 0 32-14.326 32-32s-14.326-32-32-32h-256c-17.67 0-32 14.326-32 32zM351.994 234.666c0 17.674 14.33 32 32 32h256c17.674 0 32-14.326 32-32s-14.326-32-32-32h-256c-17.67 0-32 14.326-32 32z" />
<glyph unicode="&#xe915;" glyph-name="ic-gauge" d="M352.803 832.334c50.47 20.906 104.566 31.666 159.197 31.666s108.726-10.76 159.197-31.666c50.47-20.906 96.33-51.548 134.96-90.177 38.627-38.629 69.27-84.489 90.176-134.96s31.667-104.566 31.667-159.197c0-54.63-10.762-108.726-31.667-159.197s-51.549-96.33-90.176-134.96c-38.63-38.627-84.49-69.27-134.96-90.176s-104.566-31.667-159.197-31.667c-54.63 0-108.726 10.762-159.197 31.667s-96.331 51.549-134.96 90.176c-38.629 38.63-69.271 84.49-90.177 134.96s-31.666 104.566-31.666 159.197c0 54.63 10.76 108.726 31.666 159.197s51.548 96.331 90.177 134.96c38.629 38.629 84.489 69.271 134.96 90.177zM512 800c-46.224 0-91.997-9.105-134.704-26.795s-81.511-43.618-114.197-76.304c-32.686-32.686-58.614-71.49-76.304-114.197s-26.794-88.48-26.794-134.704c0-46.224 9.105-91.997 26.794-134.704s43.618-81.51 76.304-114.198c32.686-32.685 71.49-58.614 114.197-76.304s88.48-26.794 134.704-26.794c46.224 0 91.997 9.104 134.704 26.794s81.51 43.619 114.198 76.304c32.685 32.688 58.614 71.491 76.304 114.198s26.794 88.48 26.794 134.704c0 46.224-9.104 91.997-26.794 134.704s-43.619 81.511-76.304 114.197c-32.688 32.686-71.491 58.614-114.198 76.304s-88.48 26.795-134.704 26.795zM512 629.334c-48.093 0-94.214-19.107-128.221-53.114s-53.114-80.128-53.114-128.221c0-17.674-14.326-32-31.999-32s-32 14.326-32 32c0 65.066 25.848 127.469 71.855 173.478 46.010 46.007 108.413 71.855 173.478 71.855 17.674 0 32-14.327 32-32s-14.326-31.999-32-31.999zM705.293 641.294c12.499-12.497 12.499-32.756 0-45.256l-110.506-110.506c-4.061-4.061-8.944-6.803-14.112-8.224 3.917-9.178 5.99-19.136 5.99-29.309 0-19.802-7.866-38.794-21.869-52.797s-32.995-21.869-52.797-21.869c-19.802 0-38.794 7.866-52.797 21.869s-21.869 32.995-21.869 52.797c0 19.802 7.866 38.794 21.869 52.797s32.995 21.869 52.797 21.869c10.173 0 20.131-2.074 29.309-5.99 1.421 5.168 4.163 10.051 8.224 14.112l110.506 110.507c12.499 12.497 32.758 12.497 45.254 0zM512 458.666c-2.829 0-5.542-1.123-7.542-3.123s-3.123-4.714-3.123-7.542c0-2.829 1.123-5.542 3.123-7.542s4.714-3.123 7.542-3.123c2.829 0 5.542 1.123 7.542 3.123s3.123 4.714 3.123 7.542c0 2.829-1.123 5.542-3.123 7.542s-4.714 3.123-7.542 3.123z" />
<glyph unicode="&#xe916;" glyph-name="ic-gender-bigender" d="M725.334 800c-17.674 0-32 14.327-32 32s14.326 32 32 32h170.666c17.674 0 32-14.327 32-32v-170.667c0-17.673-14.326-31.999-32-31.999s-32 14.326-32 31.999v93.412l-145.197-145.196c24.886-34.358 38.531-75.917 38.531-118.883 0-53.75-21.354-105.299-59.36-143.306-31.024-31.024-71.069-50.95-113.971-57.226 1.712-3.92 2.662-8.25 2.662-12.8v-96h96c17.674 0 32-14.326 32-32s-14.326-32-32-32h-96v-96c0-17.674-14.326-32-32-32s-32 14.326-32 32v96h-96c-17.674 0-32 14.326-32 32s14.326 32 32 32h96v96c0 4.55 0.95 8.88 2.662 12.8-42.899 6.275-82.944 26.202-113.968 57.226-38.006 38.006-59.36 89.555-59.36 143.306s21.354 105.299 59.36 143.309c38.006 38.007 89.555 59.359 143.306 59.359 42.966 0 84.525-13.643 118.883-38.529l145.197 145.196h-93.411zM554.666 629.334c-36.774 0-72.045-14.611-98.051-40.614-26.006-26.006-40.614-61.277-40.614-98.054 0-36.774 14.608-72.045 40.614-98.051s61.277-40.614 98.051-40.614c36.778 0 72.048 14.608 98.054 40.614 26.003 26.006 40.614 61.277 40.614 98.051 0 36.778-14.611 72.048-40.614 98.054-26.006 26.003-61.277 40.614-98.054 40.614z" />
<glyph unicode="&#xe917;" glyph-name="ic-home-check" d="M473.373 854.628c12.496 12.497 32.758 12.497 45.254 0l400-400c9.152-9.152 11.891-22.915 6.938-34.874s-16.621-19.754-29.565-19.754h-56.886v-34.134c0-17.674-14.33-32-32-32-17.674 0-32 14.326-32 32v66.134c0 17.674 14.326 32 32 32h11.632l-322.746 322.745-322.744-322.745h11.634c17.673 0 32-14.326 32-32v-311.11c0-15.088 5.994-29.558 16.662-40.227s25.139-16.662 40.226-16.662h56.89v234.666c0 32.064 12.736 62.813 35.405 85.482 22.672 22.672 53.421 35.408 85.482 35.408h88.89c32.061 0 62.81-12.736 85.482-35.408 22.672-22.669 35.408-53.418 35.408-85.482 0-17.674-14.326-32-32-32s-32 14.326-32 32c0 15.088-5.994 29.558-16.662 40.227s-25.139 16.662-40.227 16.662h-88.89c-15.088 0-29.555-5.994-40.224-16.662s-16.662-25.139-16.662-40.227v-234.666h80.221c17.674 0 32-14.326 32-32s-14.326-32-32-32h-201.111c-32.061 0-62.81 12.736-85.481 35.408s-35.407 53.421-35.407 85.482v279.11h-56.889c-12.943 0-24.611 7.795-29.564 19.754s-2.215 25.722 6.937 34.874l399.999 400zM918.627 232.406c12.499-12.499 12.499-32.758 0-45.258l-177.776-177.776c-12.496-12.496-32.758-12.496-45.254 0l-88.89 88.89c-12.496 12.496-12.496 32.758 0 45.254s32.758 12.496 45.254 0l66.262-66.262 155.149 155.152c12.496 12.496 32.758 12.496 45.254 0z" />
<glyph unicode="&#xe918;" glyph-name="ic-home-minus" d="M473.373 854.628c12.496 12.497 32.758 12.497 45.254 0l400-400c9.152-9.152 11.891-22.915 6.938-34.874s-16.621-19.754-29.565-19.754h-56.886v-101.334c0-17.674-14.33-32-32-32-17.674 0-32 14.326-32 32v133.334c0 17.674 14.326 32 32 32h11.632l-322.746 322.745-322.744-322.745h11.634c17.673 0 32-14.326 32-32v-311.11c0-15.088 5.994-29.558 16.662-40.227s25.139-16.662 40.227-16.662h56.89v234.666c0 32.064 12.736 62.813 35.405 85.482 22.672 22.672 53.421 35.408 85.482 35.408h88.89c32.061 0 62.81-12.736 85.482-35.408 22.672-22.669 35.408-53.418 35.408-85.482 0-17.674-14.326-32-32-32s-32 14.326-32 32c0 15.088-5.994 29.558-16.662 40.227s-25.139 16.662-40.227 16.662h-88.89c-15.088 0-29.555-5.994-40.224-16.662s-16.662-25.139-16.662-40.227v-234.666h123.555c17.674 0 32-14.326 32-32s-14.326-32-32-32h-244.445c-32.062 0-62.811 12.736-85.482 35.408s-35.407 53.421-35.407 85.482v279.11h-56.889c-12.943 0-24.611 7.795-29.564 19.754s-2.215 25.722 6.937 34.874l399.999 400zM641.779 120.89c0 17.674 14.326 32 32 32h266.666c17.674 0 32-14.326 32-32s-14.326-32-32-32h-266.666c-17.674 0-32 14.326-32 32z" />
<glyph unicode="&#xe919;" glyph-name="ic-home-share" d="M507.738 863.606c-2.259-0.649-4.544-1.215-6.848-1.696-6.944-1.504-397.248-390.88-402.048-401.12-1.76-3.744-3.2-8.736-3.232-11.104-0.096-14.016 10.4-28.704 23.040-32.224 3.744-1.024 19.232-1.888 34.464-1.888h27.648l0.512-143.808 0.48-143.776 4.64-13.664c6.464-18.944 15.456-33.408 29.664-47.616 14.208-14.176 28.672-23.2 47.616-29.632l13.664-4.64 118.144-0.512c84.608-0.384 120.192 0.032 125.376 1.44 4.256 1.152 9.824 4.544 13.536 8.224 17.632 17.664 9.28 47.584-14.848 53.184-3.68 0.864-28.416 1.568-54.944 1.6l-48.256 0.032 0.48 119.040 0.448 119.040 3.936 8.032c5.056 10.208 15.36 20.544 25.6 25.568 7.776 3.84 9.6 3.968 60.928 4.448 44.768 0.448 54.688 0.064 64.512-2.336 6.528-1.6 14.304-2.4 17.728-1.856 14.432 2.336 26.112 16.512 26.112 31.616 0 21.024-15.008 32.192-48.64 36.16-18.016 2.112-93.28 2.048-112.16-0.096-27.52-3.168-48.384-13.344-68.544-33.44-13.613-13.222-23.795-29.568-29.664-47.616l-4.64-13.632-1.024-244.928h-31.424c-27.36 0-32.64 0.448-40.64 3.456-11.008 4.128-23.136 15.456-28.768 26.88l-3.968 8.064-0.864 161.28c-0.96 178.688-0.096 166.432-12.032 176.448-5.472 4.608-7.552 5.408-19.968 7.488l-7.264 1.248 305.504 305.472 305.472-305.44-9.792-1.824c-11.168-2.048-15.072-3.904-20.384-9.6-4.512-4.8-9.056-15.168-9.056-20.544 0.032-13.792 10.624-28.416 23.072-31.872 8.8-2.432 94.88-2.528 103.584-0.128 16.672 4.64 26.336 22.112 21.824 39.36-1.792 6.848-18.976 24.544-198.528 204.32-108.096 108.224-198.496 197.824-200.832 199.040-4.512 2.368-16.736 4.608-19.616 3.552zM700.57 266.262c-0.928-0.32-3.808-1.056-6.368-1.6-4.026-1.446-7.731-3.664-10.912-6.528-17.888-15.712-13.472-42.368 8.768-52.672 6.208-2.88 12.064-3.168 66.528-3.2l59.712-0.032-82.144-82.336c-88.384-88.64-87.456-87.52-85.152-102.848 2.88-19.264 21.472-31.424 40.416-26.432 6.656 1.76 16.16 10.624 89.792 84.16l82.368 82.176 0.032-59.712c0.032-65.888 0.288-67.712 11.264-77.952 16-14.944 40.704-9.344 50.304 11.424 2.976 6.4 3.168 13.12 3.2 106.656 0 63.552-0.608 102.144-1.728 106.208-2.678 8.33-8.358 15.366-15.936 19.744-4.832 2.656-14.56 2.944-106.88 3.232-55.84 0.192-102.304 0.064-103.264-0.288z" />
<glyph unicode="&#xe91a;" glyph-name="ic-home" d="M479.030 864.971l-400-400.001c-6.864-6.864-8.917-17.187-5.203-26.154 3.715-8.97 12.466-14.816 22.173-14.816h64.889v-287.11c0-29.939 11.894-58.653 33.064-79.824s49.884-33.066 79.825-33.066h444.445c29.939 0 58.653 11.894 79.824 33.066 21.171 21.168 33.062 49.885 33.062 79.824v287.11h64.89c9.709 0 18.458 5.846 22.173 14.816 3.715 8.966 1.661 19.29-5.2 26.154l-400 400.001c-9.373 9.372-24.57 9.372-33.942 0zM386.669 72v242.666c0 17.21 6.835 33.715 19.005 45.885s28.672 19.005 45.882 19.005h88.89c17.21 0 33.715-6.835 45.885-19.005 12.166-12.17 19.005-28.675 19.005-45.885v-242.666h-218.666zM653.334 72v242.666c0 29.942-11.894 58.656-33.066 79.824-21.171 21.171-49.885 33.066-79.824 33.066h-88.89c-29.939 0-58.653-11.894-79.824-33.066-21.171-21.168-33.062-49.882-33.062-79.824v-242.666h-64.89c-17.21 0-33.715 6.835-45.884 19.005s-19.005 28.675-19.005 45.885v311.11c0 13.254-10.745 24-24 24h-30.948l342.058 342.059 342.061-342.059h-30.95c-13.254 0-24-10.746-24-24v-311.11c0-17.21-6.835-33.715-19.005-45.885s-28.672-19.005-45.882-19.005h-64.89z" />
<glyph unicode="&#xe91b;" glyph-name="ic-hospital" d="M298.667 800h426.668c14.144 0 27.709-5.619 37.712-15.621 10-10.002 15.619-23.567 15.619-37.712v-650.667h-106.666v138.666c0 31.12-12.362 60.963-34.365 82.97-22.006 22.003-51.85 34.365-82.97 34.365h-85.331c-31.12 0-60.963-12.362-82.97-34.365-22.003-22.006-34.365-51.85-34.365-82.97v-138.666h-106.667v650.667c0 14.145 5.619 27.71 15.621 37.712s23.568 15.621 37.712 15.621zM842.666 96v650.667c0 31.119-12.362 60.963-34.365 82.967s-51.85 34.366-82.966 34.366h-426.668c-31.119 0-60.963-12.362-82.967-34.366s-34.366-51.849-34.366-82.967v-650.667h-53.333c-17.673 0-32-14.326-32-32s14.327-32 32-32h768c17.674 0 32 14.326 32 32s-14.326 32-32 32h-53.334zM608 96h-192v138.666c0 14.147 5.619 27.712 15.622 37.712 10 10.003 23.565 15.622 37.712 15.622h85.331c14.147 0 27.712-5.619 37.712-15.622 10.003-10 15.622-23.565 15.622-37.712v-138.666zM512 693.333c17.674 0 32-14.327 32-32v-53.333h53.334c17.674 0 32-14.326 32-32s-14.326-32-32-32h-53.334v-53.334c0-17.674-14.326-32-32-32s-32 14.326-32 32v53.334h-53.334c-17.674 0-32 14.326-32 32s14.326 32 32 32h53.334v53.333c0 17.673 14.326 32 32 32z" />
<glyph unicode="&#xe91c;" glyph-name="ic-id" d="M256 757.344c-25.461 0-49.879-10.114-67.882-28.118s-28.118-42.421-28.118-67.882v-426.665c0-25.462 10.114-49.882 28.118-67.885s42.421-28.115 67.882-28.115h512c25.462 0 49.878 10.112 67.882 28.115s28.118 42.422 28.118 67.885v426.665c0 25.461-10.115 49.879-28.118 67.882s-42.419 28.118-67.882 28.118h-512zM142.863 774.481c30.006 30.006 70.702 46.863 113.137 46.863h512c42.435 0 83.133-16.857 113.136-46.863 30.006-30.006 46.864-70.703 46.864-113.137v-426.665c0-42.435-16.858-83.133-46.864-113.139-30.003-30.006-70.701-46.861-113.136-46.861h-512c-42.435 0-83.131 16.854-113.137 46.861s-46.863 70.704-46.863 113.139v426.665c0 42.435 16.857 83.131 46.863 113.137zM301.033 616.31c22.004 22.003 51.847 34.367 82.967 34.367s60.963-12.364 82.966-34.367c22.006-22.003 34.368-51.846 34.368-82.966s-12.362-60.963-34.368-82.966c-22.003-22.006-51.846-34.368-82.966-34.368s-60.963 12.362-82.967 34.368c-22.004 22.003-34.366 51.846-34.366 82.966s12.362 60.963 34.366 82.966zM384 586.678c-14.144 0-27.712-5.619-37.712-15.622-10.003-10.003-15.622-23.568-15.622-37.712s5.619-27.712 15.622-37.712c10-10.003 23.568-15.622 37.712-15.622s27.709 5.619 37.712 15.622c10.003 10 15.622 23.568 15.622 37.712s-5.619 27.709-15.622 37.712c-10.003 10.003-23.568 15.622-37.712 15.622zM608 618.678c0 17.67 14.326 31.999 32 31.999h85.334c17.674 0 32-14.328 32-31.999 0-17.674-14.326-32-32-32h-85.334c-17.674 0-32 14.326-32 32zM608 448.010c0 17.674 14.326 32 32 32h85.334c17.674 0 32-14.326 32-32s-14.326-32-32-32h-85.334c-17.674 0-32 14.326-32 32zM266.667 277.344c0 17.674 14.327 32 32 32h426.668c17.674 0 32-14.326 32-32s-14.326-32-32-32h-426.668c-17.673 0-32 14.326-32 32z" />
<glyph unicode="&#xe91d;" glyph-name="ic-kitchen-2" d="M897.926 861.417c11.773-5.040 19.408-16.612 19.408-29.418v-767.999c0-17.674-14.326-32-32-32h-42.669c-17.674 0-32 14.326-32 32v128c0 17.674 14.326 32 32 32 3.741 0 7.331-0.643 10.669-1.821v65.821h-181.334c-17.594 0-31.888 14.205-32 31.798-0.493 78.966 1.334 162.474 30.864 251.651 29.686 89.646 86.506 182.709 192.381 283.704 9.267 8.839 22.909 11.303 34.682 6.263zM853.334 352v401.032c-64.691-72.739-101.034-139.243-121.715-201.7-22.461-67.83-27.088-132.627-27.622-199.331h149.338zM288 821.332c17.673 0 32-14.327 32-32v-128c0-25.46 10.115-49.88 28.118-67.883 10.221-10.221 22.509-17.898 35.882-22.627v218.51c0 17.673 14.326 32 32 32s32-14.327 32-32v-218.51c13.373 4.73 25.661 12.406 35.882 22.627 18.003 18.003 28.118 42.422 28.118 67.883v128c0 17.673 14.326 32 32 32s32-14.327 32-32v-128c0-42.433-16.858-83.131-46.864-113.137-22.346-22.349-50.627-37.402-81.136-43.632v-440.563c0-17.674-14.326-32-32-32s-32 14.326-32 32v440.563c-30.509 6.23-58.79 21.283-81.137 43.632-30.006 30.006-46.863 70.704-46.863 113.137v128c0 17.673 14.327 32 32 32z" />
<glyph unicode="&#xe91e;" glyph-name="ic-loader-3" d="M480 832c0 17.673 14.326 32 32 32 110.33 0 216.141-43.828 294.157-121.844s121.843-183.827 121.843-294.156c0-110.33-43.827-216.141-121.843-294.157s-183.827-121.843-294.157-121.843c-110.33 0-216.141 43.827-294.156 121.843s-121.844 183.827-121.844 294.157c0 17.674 14.327 32 32 32s32-14.326 32-32c0-93.357 37.086-182.89 103.099-248.902s155.545-103.098 248.901-103.098c93.357 0 182.89 37.085 248.902 103.098s103.098 155.546 103.098 248.902c0 93.357-37.085 182.89-103.098 248.901s-155.546 103.099-248.902 103.099c-17.674 0-32 14.327-32 32zM464.138 688.619c47.59 9.466 96.918 4.608 141.747-13.961s83.146-50.015 110.102-90.357c26.957-40.346 41.347-87.779 41.347-136.301 0-17.674-14.326-32-32-32s-32 14.326-32 32c0 35.866-10.637 70.925-30.56 100.742-19.926 29.821-48.246 53.062-81.382 66.787-33.133 13.725-69.594 17.315-104.768 10.32-35.174-6.998-67.485-24.269-92.845-49.629s-42.63-57.67-49.629-92.845c-6.995-35.174-3.405-71.635 10.32-104.768 13.725-33.136 36.966-61.456 66.787-81.382 29.818-19.923 64.877-30.56 100.742-30.56 17.674 0 32-14.326 32-32s-14.326-32-32-32c-48.522 0-95.955 14.39-136.301 41.347-40.342 26.957-71.789 65.274-90.357 110.102s-23.427 94.157-13.961 141.747c9.466 47.59 32.832 91.302 67.144 125.613 34.31 34.312 78.022 57.678 125.613 67.144z" />
<glyph unicode="&#xe91f;" glyph-name="ic-logout" d="M130.366 786.978c22.004 22.004 51.849 34.366 82.967 34.366h298.667c31.12 0 60.963-12.362 82.966-34.366 22.006-22.004 34.368-51.848 34.368-82.967v-85.332c0-17.674-14.326-32-32-32s-32 14.326-32 32v85.332c0 14.145-5.619 27.71-15.622 37.712-10 10.002-23.568 15.621-37.712 15.621h-298.667c-14.145 0-27.71-5.619-37.712-15.621s-15.621-23.568-15.621-37.712v-512.001c0-14.144 5.619-27.709 15.621-37.712 10.002-10 23.567-15.619 37.712-15.619h298.667c14.144 0 27.709 5.619 37.712 15.619 10.003 10.003 15.622 23.568 15.622 37.712v85.334c0 17.674 14.326 32 32 32s32-14.326 32-32v-85.334c0-31.117-12.362-60.963-34.368-82.966-22.003-22.003-51.846-34.365-82.966-34.365h-298.667c-31.119 0-60.963 12.362-82.967 34.365s-34.366 51.85-34.366 82.966v512.001c0 31.119 12.362 60.963 34.366 82.967zM745.373 598.637c12.496 12.499 32.758 12.499 45.254 0l128-128c12.496-12.496 12.496-32.758 0-45.254l-128-128c-12.496-12.496-32.758-12.496-45.254 0s-12.496 32.758 0 45.254l73.373 73.373h-434.746c-17.674 0-32 14.326-32 32s14.326 32 32 32h434.746l-73.373 73.373c-12.496 12.496-12.496 32.758 0 45.254z" />
<glyph unicode="&#xe920;" glyph-name="ic-mail" d="M213.333 714.656c-14.145 0-27.71-5.619-37.712-15.621-6.235-6.235-10.767-13.855-13.296-22.136l349.675-233.116 349.674 233.116c-2.528 8.282-7.059 15.901-13.296 22.136-10 10.002-23.565 15.621-37.712 15.621h-597.332zM864 601.53l-334.25-222.832c-10.749-7.165-24.752-7.165-35.501 0l-334.25 222.832v-366.874c0-14.144 5.619-27.709 15.621-37.712s23.567-15.622 37.712-15.622h597.332c14.147 0 27.712 5.619 37.712 15.622 10.003 10.003 15.622 23.568 15.622 37.712v366.874zM130.366 744.29c22.004 22.004 51.849 34.366 82.967 34.366h597.332c31.12 0 60.963-12.362 82.97-34.366 22.003-22.004 34.365-51.849 34.365-82.967v-426.667c0-31.12-12.362-60.963-34.365-82.966-22.006-22.003-51.85-34.368-82.97-34.368h-597.332c-31.119 0-60.963 12.365-82.967 34.368s-34.366 51.846-34.366 82.966v426.667c0 31.119 12.362 60.963 34.366 82.967z" />
<glyph unicode="&#xe921;" glyph-name="ic-mosque" d="M425.549 875.711c20.995 13.29 45.507 20.289 70.451 20.289 17.674 0 32-14.327 32-32s-14.326-32-32-32c-13.030 0-25.638-3.668-36.221-10.365-10.563-6.687-18.525-16.015-23.152-26.597-4.618-10.559-5.792-22.068-3.466-33.152 2.33-11.099 8.131-21.544 16.963-29.911 8.851-8.385 20.33-14.273 33.072-16.675 12.746-2.402 25.942-1.156 37.853 3.517 11.898 4.669 21.792 12.468 28.621 22.152 6.813 9.66 10.33 20.823 10.33 32.084 0 17.673 14.326 32 32 32s32-14.327 32-32c0-24.714-7.744-48.719-22.029-68.971-14.266-20.228-34.358-35.744-57.546-44.842-5.366-2.107-10.858-3.852-16.426-5.233v-32.65c59.898-6.765 116.259-32.394 159.712-73.562 51.187-48.493 80.288-114.64 80.288-184.006v-104.419h80v163.93c-11.459 1.616-22.352 6.694-30.979 14.867-10.675 10.115-17.021 24.214-17.021 39.309v0.013c0.010 20.214 4.992 40.074 14.454 57.99 0 0.003 0.003 0.003 0.003 0.006l37.238 70.602c5.539 10.499 16.432 17.072 28.304 17.072s22.765-6.573 28.304-17.072l37.245-70.614c9.44-17.888 14.451-37.738 14.451-57.997 0-15.094-6.346-29.194-17.021-39.309-8.627-8.173-19.52-13.251-30.979-14.867v-391.299h16c17.674 0 32-14.326 32-32s-14.326-32-32-32h-336c-17.674 0-32 14.326-32 32v90.947c0 15.059-6.298 29.875-18.125 41.078-11.888 11.261-28.358 17.869-45.875 17.869s-33.987-6.608-45.875-17.869c-11.827-11.203-18.125-26.019-18.125-41.078v-90.947c0-17.674-14.326-32-32-32h-336c-17.673 0-32 14.326-32 32s14.327 32 32 32h16v391.299c-11.458 1.616-22.351 6.694-30.978 14.867-10.677 10.115-17.022 24.214-17.022 39.309v0.013c0.010 20.218 4.992 40.080 14.458 57.997l37.237 70.602c5.538 10.499 16.434 17.072 28.304 17.072s22.766-6.573 28.304-17.072l37.244-70.614c0.002 0 0.003-0.003 0.004-0.006 9.439-17.888 14.448-37.734 14.448-57.99 0-15.094-6.345-29.194-17.022-39.309-8.628-8.173-19.521-13.251-30.978-14.867v-163.93h80v104.419c0 69.366 29.102 135.514 80.286 184.006 43.454 41.168 99.816 66.797 159.714 73.562v32.651c-21.686 5.376-41.702 16.169-57.891 31.505-18.019 17.071-30.502 39.036-35.581 63.222-5.082 24.2-2.454 49.264 7.459 71.942 9.904 22.654 26.554 41.735 47.562 55.035zM144 195.37v-163.37h224v58.947c0 33.184 13.93 64.634 38.109 87.539 24.122 22.851 56.486 35.408 89.891 35.408s65.77-12.557 89.891-35.408c24.179-22.906 38.109-54.355 38.109-87.539v-58.947h224v163.37h-112c-17.674 0-32 14.326-32 32v104.419h-416v-104.419c0-17.674-14.327-32-32-32h-112zM290.811 395.789h410.379c-6.989 39.507-26.829 76.493-57.491 105.542-38.893 36.845-91.994 57.827-147.699 57.827s-108.806-20.982-147.699-57.827c-30.664-29.050-50.501-66.035-57.49-105.542zM127.267 486.736c-1.031 6.493-3.148 12.854-6.319 18.864l-0.004 0.010-8.944 16.957-8.954-16.979c-3.165-5.99-5.279-12.352-6.311-18.851h30.532zM895.267 486.736c-1.030 6.493-3.149 12.854-6.32 18.864l-0.003 0.010-8.944 16.957-8.954-16.979c-3.165-5.99-5.28-12.352-6.31-18.851h30.531z" />
<glyph unicode="&#xe922;" glyph-name="ic-packages" d="M502.333 907.025c-2.934-0.922-55.398-31.642-116.531-68.301-97.279-58.368-111.717-67.55-115.78-73.694l-4.642-7.032-0.512-113.596-0.512-113.628-98.406-58.88c-54.101-32.394-100.659-60.758-103.39-63.082-3.389-3.152-6.156-6.915-8.158-11.091-2.935-6.486-3.14-14.269-3.174-130.832-0.034-135.373-0.375-130.595 9.865-140.835 2.662-2.698 54.716-34.851 115.678-71.44l110.797-66.56h22.187l100.112 60.141c55.059 33.11 101.037 60.179 102.128 60.179s47.069-27.069 102.128-60.179l100.112-60.141h22.186l110.832 66.56c60.963 36.589 113.254 69.050 116.189 72.090 2.97 3.037 6.282 8.499 7.373 12.15 1.434 4.746 1.981 40.925 1.946 129.296-0.032 115.338-0.237 123.085-3.174 129.571-2 4.176-4.768 7.939-8.157 11.091-2.73 2.323-49.29 30.688-103.389 63.082l-98.406 58.88-0.512 113.628-0.512 113.596-4.643 7.032c-4.029 6.11-18.294 15.189-112.64 71.748-37.706 22.746-75.549 45.262-113.526 67.55-7.034 3.584-18.534 4.813-25.466 2.697zM585.517 790.801c39.357-23.62 71.542-43.452 71.542-44.134 0-1.57-142.438-87.040-145.066-87.040-3.174 0-145.203 85.743-144.691 87.313 0.682 2.014 141.619 86.596 144.419 86.699 1.229 0.034 34.438-19.251 73.795-42.837zM406.317 642.321l71.542-42.906v-155.101l-8.294 4.813c-4.538 2.662-37.171 22.118-72.464 43.248l-64.205 38.4-0.035 77.21c-0.032 42.494 0.378 77.242 0.922 77.242 0.547 0 33.178-19.32 72.534-42.906zM691.126 607.984l-0.035-77.21-64.205-38.4c-35.293-21.13-67.926-40.586-72.464-43.248l-8.294-4.813v155.101l71.27 42.838c39.184 23.552 71.814 42.872 72.531 42.906 0.685 0.034 1.229-34.679 1.197-77.174zM372.15 427.965c56.592-33.93 72.736-44.374 71.098-45.91-1.126-1.091-33.824-21.162-72.634-44.646l-70.555-42.666-74.172 44.509c-48.572 29.149-73.421 44.954-71.953 45.84l73.045 44c23.725 14.371 47.528 28.618 71.407 42.733 0.307 0.035 33.52-19.693 73.764-43.859zM795.882 429.808c38.637-23.142 71.61-43.008 73.248-44.134 2.595-1.741-7.066-8.058-70.381-46.048l-73.421-43.997-73.491 44.067c-48.298 28.944-72.736 44.509-71.27 45.395l73.082 44c23.725 14.371 47.526 28.618 71.405 42.733 0.307 0.035 32.189-18.874 70.829-42.016zM194.553 278.595l69.12-41.539 0.444-77.142c0.239-42.426 0-77.139-0.58-77.139-0.546 0-33.178 19.318-72.533 42.906l-71.543 42.906v77.482c0 73.283 0.171 77.379 3.004 75.776 1.638-0.922 34.065-20.378 72.090-43.248zM621.219 278.595l69.12-41.539 0.445-77.142c0.24-42.426 0-77.139-0.579-77.139-0.547 0-33.178 19.318-72.534 42.906l-71.542 42.906v77.482c0 73.283 0.17 77.379 3.002 75.776 1.638-0.922 34.067-20.378 72.090-43.248zM904.528 246v-77.414l-71.546-42.906c-24.013-14.582-48.192-28.883-72.531-42.906-0.582 0-0.819 34.714-0.582 77.139l0.445 77.142 71.68 43.11c23.981 14.493 48.022 28.886 72.125 43.178 0.205 0.035 0.41-34.781 0.41-77.344zM477.859 245.146v-76.56l-71.542-42.906c-24.013-14.582-48.192-28.883-72.534-42.906-0.579 0-0.819 34.304-0.579 76.253l0.445 76.253 70.826 43.078c38.947 23.722 71.408 43.178 72.125 43.245 0.682 0.035 1.261-34.336 1.261-76.458z" />
<glyph unicode="&#xe923;" glyph-name="ic-pencil" d="M645.578 781.066c18.525 7.673 38.378 11.622 58.429 11.622 20.048 0 39.904-3.949 58.426-11.622 18.525-7.673 35.357-18.919 49.533-33.097 14.179-14.178 25.424-31.009 33.098-49.533s11.622-38.378 11.622-58.428c0-20.050-3.949-39.902-11.622-58.427s-18.918-35.357-33.098-49.533l-448-448c-6-6.003-14.141-9.373-22.627-9.373h-170.666c-17.673 0-32 14.326-32 32v170.666c0 8.486 3.371 16.627 9.372 22.627l405.095 405.096c0.080 0.080 0.16 0.16 0.24 0.24 0.077 0.080 0.157 0.159 0.24 0.237l42.426 42.427c14.176 14.178 31.008 25.424 49.533 33.097zM576.006 637.421l-373.334-373.334v-125.411h125.411l373.334 373.334-125.411 125.411zM746.672 557.264l20.038 20.038c8.237 8.234 14.768 18.010 19.226 28.768 4.454 10.762 6.749 22.291 6.749 33.938s-2.294 23.177-6.749 33.936c-4.458 10.759-10.989 20.535-19.226 28.77-8.234 8.235-18.010 14.767-28.768 19.223-10.762 4.456-22.291 6.75-33.936 6.75-11.648 0-23.178-2.294-33.936-6.75-10.762-4.457-20.538-10.989-28.771-19.223l-20.038-20.038 125.411-125.412z" />
<glyph unicode="&#xe924;" glyph-name="ic-pillow" d="M779.936 763.113c-7.040-2.144-16.64-5.568-21.344-7.616-8.416-3.712-9.248-3.744-54.592-2.272-152.896 4.896-325.408-15.168-455.105-52.896l-18.176-5.312-12.544 5.248c-30.72 12.768-55.648 16.544-72.256 10.88l-10.24-3.456-1.216-10.624c-1.056-9.44-0.608-12.16 4.096-24.352 5.632-14.624 9.728-22.432 16.48-31.488l4.192-5.631-3.072-10.592c-20.192-69.6-28.128-120.448-28.128-180.416-0.064-86.016 17.664-172.352 49.856-243.2 4.704-10.304 8.544-19.904 8.544-21.312 0.032-1.408-0.96-9.92-2.144-18.944-1.6-12.064-1.664-17.216-0.256-19.616 1.76-3.072 1.888-3.072 1.952-0.16 0.032 2.112 0.992 2.848 3.040 2.272 8.672-2.432 10.784-2.4 5.12 0.032-7.584 3.232-7.936 5.376-1.92 11.424 5.792 5.76 8.448 5.696 8.384-0.192-0.064-3.584 0.832-4.832 3.776-5.248 2.752-0.384 3.84-1.696 3.84-4.608 0-3.104-2.528-5.792-10.24-11.040-5.632-3.84-10.24-7.2-10.24-7.488 0-0.32 0.832-2.976 1.856-5.92 1.728-4.928 2.56-5.408 9.824-5.696 17.408-0.672 28.8 2.784 46.176 14.016l10.464 6.752 54.144-1.44c180.961-4.768 316.833 14.048 426.209 59.008 32.16 13.216 66.112 31.776 90.176 49.28l9.92 7.232 9.696-5.12c8.288-4.384 11.104-5.024 19.488-4.448 11.2 0.8 17.696 5.568 23.904 17.536 4.544 8.736 5.92 29.664 3.008 45.056-1.661 7.651-1.702 15.562-0.128 23.232 3.168 18.976 4.224 75.488 1.952 104.096-6.4 80.64-25.376 165.728-54.336 243.615l-9.344 25.152 4.416 10.688c9.024 21.92 9.728 33.632 2.656 45.024-7.904 12.832-31.936 16.384-57.888 8.544zM779.424 708.073c-2.176-4.16-1.664-6.272 6.912-27.744 47.232-118.655 70.272-256.287 58.304-348.383-2.496-19.136-3.296-22.176-5.952-22.176-1.312 0-12-7.264-23.744-16.128-53.952-40.704-104.64-64.192-180.928-83.744-73.408-18.816-141.696-26.304-252.416-27.616-70.529-0.864-76.545-0.704-75.553 1.888 2.528 6.592 13.248 52.992 16.417 70.976 11.968 68.192 13.632 152.544 4.288 219.328-8.865 63.456-27.297 119.872-52.769 161.536-7.072 11.583-10.144 18.015-8.832 18.751 3.328 1.856 39.872 11.168 68.513 17.408 69.888 15.296 156.096 26.656 241.472 31.84 34.112 2.048 128.768 2.112 160.16 0.096l22.72-1.472 10.56 4.864c13.056 6.080 13.728 6.112 10.848 0.576zM179.807 679.529c-1.984-3.488-6.208-7.936-7.552-7.936-0.704 0-3.616 3.776-6.464 8.384l-5.152 8.384 10.144-3.424c6.528-2.208 9.728-4.128 9.024-5.408zM234.271 608.874c47.648-79.232 63.392-219.648 39.456-352-4.8-26.368-15.072-66.304-17.792-69.024-4.224-4.224-5.088 2.208-3.392 25.6 2.24 30.816 2.24 137.216 0.032 181.824-4.352 87.52-14.496 163.584-27.872 209.216-3.808 13.024-3.68 17.6 0.576 17.6 0.576 0 4.608-5.952 8.992-13.216zM192.703 521.13c8.48-59.456 11.968-111.84 13.056-196 0.896-70.464 1.024-69.856-8.832-35.104-21.376 75.36-26.080 161.952-13.216 244.48 3.392 21.824 4.128 20.768 8.992-13.376z" />
<glyph unicode="&#xe925;" glyph-name="ic-properti" d="M142.219 849.781c-17.673 0-32-14.327-32-32v-603.426c0-17.674 14.327-32 32-32h109.714c17.673 0 32 14.326 32 32v77.715h18.285v-77.715c0-17.674 14.327-32 32-32h54.858c17.674 0 32 14.326 32 32s-14.326 32-32 32h-22.858v77.715c0 17.674-14.326 32-32 32h-82.285c-17.673 0-32-14.326-32-32v-77.715h-45.714v539.426h237.714v-173.714c0-17.674 14.326-32 32-32h77.712v-50.285c0-17.674 14.326-32 32-32s32 14.326 32 32v82.285c0 17.674-14.326 32.001-32 32.001h-77.712v173.713c0 17.673-14.33 32-32 32h-301.714zM697.248 554.618c-11.757 9.552-28.602 9.552-40.358 0l-219.427-178.285c-7.478-6.077-11.821-15.2-11.821-24.835v-301.715c0-17.67 14.326-32 32-32h150.854c17.674 0 32 14.33 32 32v132.573h73.142v-132.573c0-17.67 14.326-32 32-32h150.858c17.674 0 32 14.33 32 32v301.715c0 9.635-4.342 18.758-11.821 24.835l-219.427 178.285zM489.642 81.782v254.483l187.427 152.285 187.427-152.285v-254.483h-86.858v132.573c0 17.674-14.326 32-32 32h-137.142c-17.674 0-32-14.326-32-32v-132.573h-86.854zM265.654 735.478c0-15.148-12.28-27.428-27.428-27.428s-27.428 12.28-27.428 27.428c0 15.148 12.28 27.428 27.428 27.428s27.428-12.28 27.428-27.428zM361.664 708.049c15.146 0 27.427 12.28 27.427 27.428s-12.282 27.428-27.427 27.428c-15.149 0-27.43-12.28-27.43-27.428s12.282-27.428 27.43-27.428zM265.654 625.76c0-15.149-12.28-27.43-27.428-27.43s-27.428 12.282-27.428 27.43c0 15.148 12.28 27.428 27.428 27.428s27.428-12.28 27.428-27.428zM361.664 598.33c15.146 0 27.427 12.282 27.427 27.43s-12.282 27.428-27.427 27.428c-15.149 0-27.43-12.28-27.43-27.428s12.282-27.43 27.43-27.43zM265.654 516.070c0-15.146-12.28-27.427-27.428-27.427s-27.428 12.282-27.428 27.427c0 15.149 12.28 27.43 27.428 27.43s27.428-12.282 27.428-27.43zM361.664 488.643c15.146 0 27.427 12.282 27.427 27.427 0 15.149-12.282 27.43-27.427 27.43-15.149 0-27.43-12.282-27.43-27.43 0-15.146 12.282-27.427 27.43-27.427z" />
<glyph unicode="&#xe926;" glyph-name="ic-report-money" d="M452.966 862.567c-24-2.784-46.272-13.728-64.896-31.84-12.8-12.416-23.072-27.648-28.192-41.664l-3.648-9.952-28.352-0.032c-60.833-0.032-83.841-7.264-111.777-35.136-13.624-13.22-23.818-29.565-29.696-47.616l-4.64-13.664v-554.657l4.64-13.664c6.464-18.944 15.456-33.408 29.664-47.616 14.208-14.176 28.64-23.2 47.616-29.632l13.664-4.672h469.313l13.664 4.672c18.038 5.872 34.381 16.042 47.616 29.632 14.208 14.208 23.2 28.672 29.664 47.616l4.64 13.664v554.657l-4.64 13.664c-5.878 18.051-16.074 34.396-29.696 47.616-27.936 27.872-50.944 35.104-111.776 35.136l-28.352 0.032-3.648 9.952c-5.12 14.016-15.392 29.248-28.192 41.664-17.981 18.194-41.773 29.507-67.232 31.968-17.504 2.016-98.24 1.92-115.744-0.128zM577.19 794.791c10.24-5.056 20.544-15.36 25.6-25.6 5.664-11.488 5.632-33.568-0.032-45.088-5.632-11.456-17.76-22.784-28.768-26.88-8.512-3.2-13.248-3.456-61.984-3.456s-53.472 0.256-61.984 3.456c-18.272 6.816-32.032 25.696-33.312 45.664-0.746 8.957 0.842 17.955 4.611 26.116s9.59 15.204 16.893 20.444c13.312 9.792 14.944 9.984 75.488 9.632 54.176-0.352 55.68-0.448 63.488-4.288zM359.878 704.295c7.936-21.76 28.672-46.176 49.952-58.784 5.984-3.552 17.024-8.545 24.512-11.073l13.664-4.672h128l13.664 4.672c8.474 2.976 16.675 6.681 24.512 11.073 21.312 12.64 42.016 37.024 49.984 58.88l3.68 10.048 36-0.512c33.6-0.512 36.544-0.8 44-4.48 10.24-5.024 20.576-15.36 25.6-25.6l3.936-8v-541.025l-3.968-8.064c-5.632-11.424-17.76-22.752-28.768-26.88-9.056-3.392-12.768-3.456-232.64-3.456s-223.585 0.064-232.641 3.456c-11.008 4.128-23.136 15.456-28.768 26.88l-3.968 8.064-0.48 267.104c-0.384 199.52 0 268.929 1.504 274.369 3.968 14.496 18.464 29.856 33.376 35.296 4.768 1.76 15.872 2.464 40.897 2.528l34.304 0.128 3.648-9.952zM507.75 564.966c-0.96-0.32-3.776-1.056-6.272-1.6-11.808-2.592-21.792-17.568-21.856-32.8l-0.032-8.736-8.256-1.088c-4.512-0.608-14.656-4.192-22.528-8-26.24-12.704-46.144-37.792-52-65.6-7.008-33.376 2.048-63.552 26.432-87.904 23.072-23.104 40.864-28.928 88.416-28.96 30.624-0.032 35.136-0.896 43.616-8.352 12.032-10.528 12.672-32.288 1.344-45.184-7.52-8.544-8.992-8.736-76.192-9.632-68.16-0.928-68.16-0.928-77.12-10.528-4.512-4.832-9.056-15.168-9.056-20.576 0.032-13.792 10.624-28.384 23.072-31.872 3.744-1.024 19.264-1.888 34.528-1.888h27.744v-6.4c0.032-27.2 24.96-43.776 47.936-31.904 10.304 5.312 16.864 17.888 16.896 32.352v6.88l10.112 1.92c16.704 3.168 31.84 11.744 46.24 26.144 30.24 30.24 37.216 72.192 18.4 110.592-10.912 22.272-38.304 44.352-62.048 49.984-4.64 1.12-24.224 2.496-43.552 3.072l-35.136 1.056-6.272 4.8c-19.232 14.688-16.928 43.424 4.352 54.272 5.856 2.976 10.816 3.232 64.864 3.232 37.44 0 60.96 0.704 65.312 1.888 19.52 5.44 28.832 31.040 17.376 47.84-8.832 12.96-16.032 15.040-52.768 15.072l-26.88 0.064v6.4c-0.032 13.984-6.752 26.688-16.832 31.84-4.736 2.432-16.96 4.64-19.84 3.616z" />
<glyph unicode="&#xe927;" glyph-name="ic-school" d="M510.781 765.711c7.632 3.052 16.141 3.052 23.77 0l426.669-170.668c12.147-4.858 20.115-16.624 20.115-29.709v-256c0-17.674-14.326-32-32-32s-32 14.326-32 32v208.733l-106.669-42.666v-208.739c0-52.208-40.694-93.142-92.669-119.133-53.472-26.733-123.747-40.867-195.331-40.867-71.581 0-141.856 14.134-195.328 40.867-51.976 25.99-92.671 66.925-92.671 119.133v208.739l-150.551 60.221c-12.149 4.861-20.116 16.627-20.116 29.712s7.966 24.851 20.116 29.709l426.665 170.668zM279.048 526.579l243.618-97.446 243.619 97.446c0.333 0.141 0.672 0.275 1.011 0.403l95.875 38.352-340.506 136.201-340.503-136.201 95.876-38.352c0.339-0.128 0.676-0.262 1.009-0.403zM298.667 449.802v-183.139c0-15.69 13.248-39.866 57.292-61.888 42.547-21.274 102.499-34.112 166.707-34.112s124.163 12.838 166.71 34.112c44.042 22.022 57.29 46.198 57.29 61.888v183.139l-212.115-84.845c-7.629-3.053-16.138-3.053-23.77 0l-212.114 84.845z" />
<glyph unicode="&#xe928;" glyph-name="ic-sofa-outline" d="M230.395 786.57c-39.185-7.68-77.585-39.663-92.808-77.278-8.329-20.514-9.592-31.71-9.592-84.581v-48.71h-4.915c-13.21 0-34.202-5.632-50.688-13.619-17.771-8.576-33.32-21.146-45.434-36.723s-20.465-33.744-24.403-53.082c-3.823-18.534-3.823-243.949 0-262.483 5.12-24.829 17.401-47.613 35.327-65.539 17.925-17.923 40.709-30.205 65.537-35.325 6.107-1.312 12.302-2.166 18.534-2.56h6.042v-85.334h85.333v85.334h597.334v-85.334h85.331v85.334h6.042c6.234 0.394 12.429 1.248 18.534 2.56 24.829 5.12 47.613 17.402 65.539 35.325 17.923 17.926 30.205 40.71 35.325 65.539 3.824 18.534 3.824 243.949 0 262.483-3.936 19.338-12.288 37.504-24.4 53.082-12.115 15.578-27.664 28.147-45.437 36.723-16.486 7.987-37.478 13.619-50.688 13.619h-4.915v48.71c0 52.872-1.261 64.067-9.59 84.581-11.366 28.126-34.714 52.804-62.806 66.423-28.33 13.722-30.138 13.892-148.102 13.244-100.864-0.546-101.242-0.58-113.152-4.54-14.218-4.539-27.61-11.339-39.664-20.139l-10.685-7.543-10.65 7.543c-12.067 8.794-25.472 15.593-39.696 20.139l-11.946 3.994-103.254 0.341c-85.026 0.273-105.506-0.102-116.053-2.185zM441.168 701.168c4.982-1.672 11.229-5.734 15.565-10.069 13.142-13.141 12.595-5.598 12.595-176.846v-151.584h-213.094l-0.614 54.17c-0.614 50.995-0.887 54.918-4.574 66.15-6.076 18.499-16.521 37.136-27.614 49.254l-10.103 10.989v62.157c0 70.896 0.375 73.49 12.8 85.881 12.629 12.663 10.684 12.459 114.483 12.595 81.648 0.137 93.219-0.205 100.557-2.697zM782.502 701.168c4.982-1.672 11.229-5.734 15.565-10.069 12.048-12.083 12.595-15.735 12.595-86.561v-61.306l-10.106-10.989c-11.091-12.118-21.536-30.755-27.613-49.254-3.686-11.232-3.958-15.155-4.573-66.15l-0.614-54.17h-213.094v152.438c0 171.657-0.65 162.748 12.8 176.162 12.627 12.663 10.682 12.459 114.483 12.595 81.645 0.137 93.216-0.205 100.557-2.697zM142.501 487.834c4.983-1.67 11.23-5.734 15.565-10.067 12.561-12.563 12.595-12.87 12.595-112.845v-87.587h682.667v88.438c0 100.115-0.102 99.296 12.765 112.128 3.917 3.984 8.589 7.149 13.744 9.302 5.152 2.154 10.685 3.258 16.272 3.245s11.114-1.142 16.259-3.318c5.142-2.179 9.802-5.363 13.699-9.363 12.832-12.835 12.595-10.208 12.595-136.432s0.237-123.597-12.595-136.432c-14.099-14.096 24.269-12.902-414.074-12.902-437.964 0-399.973-1.158-413.9 12.768-13.141 13.107-12.766 9.181-12.766 136.566 0 127.421-0.375 123.459 12.8 136.602 11.844 11.843 28.023 15.462 44.373 9.898z" />
<glyph unicode="&#xe929;" glyph-name="ic-stove" d="M240.781 871.721c-5.441-2.339-10.404-5.66-14.643-9.796-10.581-10.547-12.8-18.876-12.8-47.957v-24.269l-30.276-0.785c-24.986-0.683-32.017-1.434-40.004-4.335-28.296-10.308-49.903-34.714-55.842-63.181-2.662-12.766-2.662-576.716 0-589.484 7.1-33.926 35.874-61.133 70.554-66.627l12.902-2.083v-41.882h128v42.669h426.666v-42.669h128v42.189l9.046 1.059c12.118 1.434 27.274 6.826 37.309 13.245 17.747 11.398 32.733 33.28 37.101 54.099 2.662 12.768 2.662 576.718 0 589.484-5.939 28.467-26.349 51.678-55.296 62.84-8.941 3.447-14.061 4.028-40.515 4.71l-30.31 0.751v24.269c0 29.048-2.218 37.41-12.765 47.923-12.87 12.902-11.674 12.766-115.235 12.766s-102.365 0.136-115.235-12.766c-10.579-10.547-12.765-18.842-12.765-48.128v-24.439h-85.334v24.439c0 29.286-2.182 37.581-12.765 48.128-12.902 12.937-11.536 12.8-115.952 12.629-79.018-0.102-93.388-0.512-99.839-2.799zM853.338 618.656v-85.334h-682.666v170.668h682.666v-85.333zM240.781 658.388c-15.053-5.325-27.443-23.245-27.443-39.732 0-10.307 5.086-22.256 12.766-29.901 3.906-3.962 8.561-7.11 13.694-9.258s10.642-3.254 16.206-3.254c5.564 0 11.074 1.107 16.207 3.254s9.788 5.296 13.694 9.258c32.12 32.086-2.048 84.856-45.124 69.632zM582.115 658.388c-15.053-5.325-27.443-23.245-27.443-39.732 0-22.493 20.173-42.666 42.666-42.666 10.31 0 22.256 5.085 29.901 12.765 32.122 32.086-2.048 84.856-45.123 69.632zM752.781 658.388c-15.053-5.325-27.443-23.245-27.443-39.732 0-22.493 20.173-42.666 42.669-42.666 10.307 0 22.253 5.085 29.901 12.765 32.118 32.086-2.048 84.856-45.126 69.632zM853.338 298.656v-149.334h-682.666v298.669h682.666v-149.334zM320.858 298.656l63.968-64h85.331l-127.93 128h-85.335l63.965-64zM619.526 298.656l63.965-64h85.334l-127.933 128h-85.334l63.968-64z" />
<glyph unicode="&#xe92a;" glyph-name="ic-tv" d="M154.864 787.498c-15.36-3.652-32.392-16.93-41.711-32.529-11.298-18.876-10.752-5.427-10.718-261.666 0.034-150.256 0.649-234.803 1.775-239.651 6.178-26.758 28.365-49.117 54.17-54.611 6.315-1.331 56.73-1.914 167.662-1.914h158.653v-57.923l-155.613-0.957-4.096-4.778c-3.859-4.506-4.131-6.077-4.131-25.258 0-19.456 0.205-20.685 4.198-24.646l4.163-4.198h365.568l4.166 4.198c3.994 3.962 4.198 5.19 4.198 24.646 0 19.181-0.275 20.752-4.131 25.258l-4.096 4.778-155.613 0.957v57.923h158.65c110.934 0 161.35 0.582 167.664 1.914 25.77 5.459 46.285 25.872 53.59 53.28 1.946 7.27 2.355 49.459 2.355 240.982 0.032 256.239 0.579 242.79-10.72 261.666-7.811 12.403-18.838 22.454-31.914 29.082l-9.386 4.437-354.134 0.273c-202.923 0.137-356.864-0.41-360.55-1.263zM862.79 725.409l4.198-4.164v-226.339c0-233.709 0.102-230.672-6.691-235.859-3.926-3.040-692.668-3.040-696.593 0-6.793 5.187-6.69 2.15-6.69 235.859v226.339l4.198 4.164 4.164 4.198h693.247l4.166-4.198z" />
<glyph unicode="&#xe92b;" glyph-name="ic-two-beds" d="M185.632 838.757c-25.152-2.976-45.504-13.12-64.608-32.192-14.656-14.688-23.424-29.12-29.088-47.936-3.808-12.672-3.84-14.112-4.48-134.302l-0.64-121.504-9.344-1.952c-12.32-2.56-33.504-13.312-44.288-22.464-11.488-9.76-22.72-23.328-28.448-34.272l-4.672-8.928-0.064-283.52 4.704-4.48c6.56-6.272 18.752-11.424 27.136-11.488l7.104-0.032 0.608-32c0.544-27.936 1.056-32.992 4.16-39.68 2.481-5.712 6.277-10.758 11.080-14.723s10.474-6.736 16.553-8.090c6.078-1.357 12.391-1.254 18.422 0.298s11.61 4.506 16.281 8.627c12.16 10.368 13.344 15.072 13.376 52.704l0.032 32.864h785.088l0.032-32.864c0.032-37.632 1.216-42.336 13.376-52.704 20.576-17.632 50.944-10.88 62.336 13.888 3.104 6.688 3.616 11.744 4.16 39.68l0.608 32 7.104 0.032c8.384 0.064 20.576 5.216 27.136 11.488l4.704 4.48-0.096 141.76-0.064 141.76-4.608 8.896c-5.696 10.944-16.992 24.576-28.416 34.304-10.784 9.152-31.968 19.904-44.288 22.464l-9.344 1.952-0.64 121.504c-0.64 120.19-0.672 121.63-4.48 134.302-5.856 19.424-14.336 33.248-29.92 48.64-13.69 13.989-30.816 24.131-49.664 29.408-9.568 2.784-31.392 2.976-332.8 3.2-177.408 0.16-327.744-0.352-334.048-1.12zM841.056 754.789c3.904-2.592 8.64-7.744 10.528-11.456 3.328-6.528 3.456-9.792 3.424-96l-0.032-89.246-5.408 9.248c-7.072 12.16-24.768 30.784-36.832 38.784-7.654 4.662-15.76 8.544-24.192 11.584l-14.56 5.248-87.584 0.512c-98.656 0.576-105.664-0.032-127.232-10.72-16.608-8.256-36.544-25.824-45.568-40.16-1.408-2.272-1.792-2.272-3.2 0-9.024 14.336-28.96 31.904-45.568 40.16-21.568 10.688-28.576 11.296-127.232 10.72l-87.584-0.512-14.56-5.248c-8.433-3.040-16.538-6.922-24.192-11.584-12.032-8-30.368-27.264-37.12-39.072l-5.152-8.96v89.246c-0.032 85.536 0.096 89.504 3.328 95.84 2.003 3.788 4.764 7.124 8.11 9.8s7.209 4.634 11.346 5.752c2.944 0.704 148.64 1.152 323.776 1.024l318.4-0.288 7.104-4.672zM434.624 537.478c8.448-6.752 12.512-14.912 12.512-25.056v-8.096h-206.912l0.736 10.080c0.864 11.776 6.304 20.352 16.416 25.728 6.048 3.2 9.632 3.328 88.48 2.976l82.208-0.384 6.56-5.248zM766.272 540.166c10.336-5.28 15.904-13.792 16.768-25.76l0.736-10.080h-206.912v7.744c0 13.216 5.792 22.528 17.92 28.832 4.416 2.304 15.936 2.656 84.96 2.656 76.384 0.032 80.16-0.128 86.528-3.392zM932.768 420.902c8.416-3.808 15.424-11.808 17.76-20.32 1.12-3.968 1.792-39.424 1.792-95.52v-89.152h-880.64v89.152c0 56.096 0.672 91.552 1.792 95.52 2.336 8.512 9.344 16.512 17.76 20.32 6.624 3.008 22.88 3.136 420.768 3.136s414.144-0.128 420.768-3.136z" />
<glyph unicode="&#xe92c;" glyph-name="ic-user-scan" d="M309.333 757.344c-14.145 0-27.71-5.619-37.712-15.621s-15.621-23.568-15.621-37.712v-85.332c0-17.674-14.327-32-32-32s-32 14.326-32 32v85.332c0 31.119 12.362 60.963 34.366 82.967s51.849 34.366 82.967 34.366h85.332c17.674 0 32-14.327 32-32s-14.326-32-32-32h-85.332zM704 789.344c0 17.673 14.326 32 32 32h85.334c31.117 0 60.963-12.362 82.966-34.366s34.365-51.848 34.365-82.967v-85.332c0-17.674-14.326-32-32-32s-32 14.326-32 32v85.332c0 14.145-5.619 27.71-15.619 37.712-10.003 10.002-23.568 15.621-37.712 15.621h-85.334c-17.674 0-32 14.327-32 32zM482.365 658.978c22.006 22.004 51.85 34.366 82.97 34.366 31.117 0 60.963-12.362 82.966-34.366s34.365-51.848 34.365-82.968c0-31.117-12.362-60.963-34.365-82.966s-51.85-34.365-82.966-34.365c-31.12 0-60.963 12.362-82.97 34.365-22.003 22.003-34.365 51.85-34.365 82.966 0 31.12 12.362 60.963 34.365 82.968zM565.334 629.344c-14.147 0-27.712-5.619-37.712-15.622-10.003-10-15.622-23.565-15.622-37.712 0-14.144 5.619-27.709 15.622-37.712 10-10 23.565-15.619 37.712-15.619 14.144 0 27.709 5.619 37.712 15.619 10 10.003 15.619 23.568 15.619 37.712 0 14.147-5.619 27.712-15.619 37.712-10.003 10.003-23.568 15.622-37.712 15.622zM480 330.678c-14.144 0-27.709-5.619-37.712-15.622s-15.622-23.568-15.622-37.712c0-17.674-14.326-32-32-32s-32 14.326-32 32c0 31.12 12.362 60.963 34.368 82.966 22.003 22.003 51.846 34.368 82.966 34.368h170.666c31.12 0 60.963-12.365 82.97-34.368 22.003-22.003 34.365-51.846 34.365-82.966 0-17.674-14.326-32-32-32s-32 14.326-32 32c0 14.144-5.619 27.709-15.622 37.712-10 10.003-23.565 15.622-37.712 15.622h-170.666zM224 309.344c17.673 0 32-14.326 32-32v-85.334c0-14.144 5.619-27.709 15.621-37.712 10.002-10 23.567-15.619 37.712-15.619h85.332c17.674 0 32-14.33 32-32 0-17.674-14.326-32-32-32h-85.332c-31.119 0-60.963 12.362-82.967 34.365s-34.366 51.85-34.366 82.966v85.334c0 17.674 14.327 32 32 32zM906.666 309.344c17.674 0 32-14.326 32-32v-85.334c0-31.117-12.362-60.963-34.365-82.966s-51.85-34.365-82.966-34.365h-85.334c-17.674 0-32 14.326-32 32 0 17.67 14.326 32 32 32h85.334c14.144 0 27.709 5.619 37.712 15.619 10 10.003 15.619 23.568 15.619 37.712v85.334c0 17.674 14.326 32 32 32z" />
<glyph unicode="&#xe92d;" glyph-name="ic-users" d="M240.693 804.64c38.007 38.007 89.556 59.36 143.307 59.36s105.299-21.352 143.306-59.36c38.010-38.007 59.36-89.556 59.36-143.307s-21.35-105.298-59.36-143.308c-38.006-38.006-89.555-59.36-143.306-59.36s-105.3 21.354-143.307 59.36c-38.007 38.010-59.36 89.558-59.36 143.308s21.352 105.3 59.36 143.307zM384 800c-36.778 0-72.047-14.61-98.052-40.614s-40.614-61.276-40.614-98.052c0-36.777 14.609-72.047 40.614-98.053 26.005-26.003 61.275-40.614 98.052-40.614s72.048 14.611 98.051 40.614c26.006 26.006 40.614 61.277 40.614 98.053s-14.608 72.047-40.614 98.052c-26.003 26.005-61.274 40.614-98.051 40.614zM651.667 834.396c4.384 17.121 21.814 27.446 38.938 23.063 43.594-11.162 82.234-36.516 109.827-72.064s42.57-79.269 42.57-124.269c0-45-14.976-88.722-42.57-124.271-27.594-35.546-66.234-60.899-109.827-72.064-17.123-4.381-34.554 5.942-38.938 23.066-4.384 17.12 5.942 34.554 23.062 38.934 29.827 7.638 56.266 24.986 75.146 49.309s29.126 54.237 29.126 85.026c0 30.79-10.246 60.704-29.126 85.027s-45.318 41.669-75.146 49.307c-17.12 4.384-27.446 21.817-23.062 38.937zM298.667 288c-36.777 0-72.047-14.608-98.052-40.614s-40.614-61.277-40.614-98.051v-85.334c0-17.674-14.327-32-32-32s-32 14.326-32 32v85.334c0 53.75 21.352 105.299 59.36 143.306s89.556 59.36 143.307 59.36h170.668c53.75 0 105.299-21.354 143.306-59.36s59.36-89.555 59.36-143.306v-85.334c0-17.674-14.326-32-32-32s-32 14.326-32 32v85.334c0 36.774-14.608 72.045-40.614 98.051s-61.277 40.614-98.051 40.614h-170.668zM737.014 321.584c4.419 17.11 21.872 27.402 38.986 22.982 43.312-11.181 81.706-36.378 109.2-71.661 27.494-35.286 42.541-78.675 42.8-123.405v-85.517c0-17.674-14.326-32-32-32s-32 14.326-32 32v85.238c-0.195 30.573-10.49 60.227-29.283 84.346-18.813 24.141-45.082 41.379-74.717 49.030-17.11 4.419-27.402 21.872-22.986 38.986z" />
<glyph unicode="&#xe92e;" glyph-name="ic-viewport-wide" d="M120.324 862.861c-5.451-1.252-10.463-3.953-14.507-7.817s-6.97-8.747-8.469-14.135c-2.464-8.896-2.336-137.28 0.128-146.24 2.528-9.088 12.512-18.816 21.888-21.344 8.1-2.285 16.775-1.277 24.135 2.805s12.81 10.906 15.161 18.987c1.024 3.68 1.76 26.912 1.76 55.392v49.088h703.167v-49.088c0-30.528 0.736-51.616 1.888-55.84 2.528-9.088 12.512-18.816 21.888-21.344 8.099-2.285 16.774-1.277 24.134 2.805s12.81 10.906 15.162 18.987c2.368 8.512 2.368 137.28 0 145.792-2.669 8.335-8.352 15.375-15.936 19.744-4.992 2.752-30.528 2.944-395.296 3.2-214.495 0.128-392.287-0.32-395.103-0.992zM251.748 607.629c-2.261-0.65-4.545-1.216-6.848-1.696-7.808-1.696-143.2-137.28-147.008-147.232-3.008-7.904-2.272-17.92 1.888-25.792 1.312-2.496 33.344-35.36 71.2-73.088 61.152-60.928 69.632-68.768 76.256-70.496 5.47-1.536 11.25-1.587 16.746-0.147 5.496 1.437 10.51 4.314 14.528 8.33s6.892 9.030 8.331 14.528c1.438 5.498 1.387 11.277-0.148 16.746-1.696 6.464-7.232 12.736-41.44 47.136l-39.488 39.68h111.744c76.255 0 113.887 0.608 118.495 1.888 3.744 1.056 9.632 4.704 13.088 8.16 17.632 17.632 9.248 47.552-14.88 53.152-3.68 0.864-56.576 1.568-117.567 1.6l-110.88 0.032 39.456 39.68c32.512 32.672 39.808 40.896 41.344 46.528 2.272 8.416 2.304 10.336 0.096 18.272-2.080 7.456-8.704 15.872-15.072 19.136-4.736 2.4-16.96 4.64-19.84 3.584zM763.747 607.629c-0.96-0.32-3.776-1.056-6.272-1.6-10.080-2.208-21.792-17.376-21.856-28.32-0.096-13.312 2.368-16.608 43.168-57.6l39.456-39.68-110.88-0.032c-60.992-0.032-113.888-0.736-117.568-1.6-24.128-5.6-32.512-35.52-14.88-53.152 3.456-3.456 9.344-7.104 13.088-8.16 4.608-1.28 42.24-1.888 118.496-1.888h111.744l-39.424-39.68c-42.528-42.816-44.64-45.792-42.464-60.16 2.88-19.264 21.472-31.424 40.416-26.432 6.624 1.728 15.104 9.568 76.256 70.496 37.856 37.728 69.856 70.496 71.104 72.896 3.744 7.040 4.704 15.968 2.592 24-1.76 6.72-9.312 14.848-70.528 76.32-37.728 37.856-70.496 69.824-72.832 71.040-4.512 2.368-16.736 4.576-19.616 3.552zM120.324 222.893c-5.452-1.261-10.463-3.968-14.506-7.837s-6.969-8.755-8.47-14.147c-2.464-8.896-2.336-137.28 0.128-146.24 2.432-8.704 12.48-18.752 21.184-21.184 9.632-2.656 777.055-2.656 786.687 0 8.704 2.432 18.752 12.48 21.184 21.184 2.464 8.96 2.592 137.344 0.128 146.24-3.84 13.824-15.552 22.368-30.656 22.368s-26.816-8.544-30.656-22.368c-1.024-3.68-1.76-26.912-1.76-55.392v-49.088h-703.167v49.088c0 28.48-0.736 51.712-1.76 55.392-2.080 7.456-8.704 15.872-15.072 19.136-7.302 3.232-15.398 4.224-23.264 2.848z" />
<glyph unicode="&#xe92f;" glyph-name="ic-bucket" d="M96.476 676.992c-0.984 7.35-0.387 14.825 1.75 21.926s5.765 13.664 10.643 19.25c4.877 5.586 10.891 10.066 17.638 13.142s14.074 4.675 21.49 4.691h760.001c7.418-0.018 14.746-1.617 21.494-4.692 6.752-3.075 12.768-7.554 17.651-13.139 4.88-5.585 8.515-12.146 10.662-19.247 2.144-7.101 2.749-14.578 1.776-21.931l-0.064-0.288-11.52-75.328v-0.064c-1.658-11.133-6.077-21.674-12.858-30.656s-15.706-16.125-25.958-20.768l-67.968-518.016v-0.096c-4.544-35.616-34.4-63.776-71.136-63.776h-484.449c-36.8 0-66.624 28.16-71.104 63.744v0.128l-9.536 72.48c-43.232 8.64-74.784 30.112-90.656 66.112-18.080 40.896-11.104 91.328 2.88 138.88 10.88 36.8 27.328 76.288 45.696 115.552l-16.384 125.056c-10.26 4.634-19.19 11.773-25.973 20.758-6.782 8.982-11.198 19.53-12.843 30.666l-11.2 75.2-0.032 0.416zM161.916 672l9.12-61.216c0.101-0.774 0.483-1.485 1.073-1.997 0.589-0.515 1.346-0.794 2.127-0.787h707.521c1.216 0 2.656 0.96 2.912 2.752l0.032 0.16 9.376 61.088h-732.161zM179.9 295.488c-0.434-1.418-0.861-2.835-1.28-4.256-13.184-44.8-14.080-76.032-5.76-94.912 3.52-8 9.92-16.288 23.040-22.496l-16 121.664zM270.108 99.968l7.904-60.16c0.64-5.312 4.736-7.808 7.616-7.808h484.481c2.88 0 6.944 2.496 7.584 7.808l0.032 0.192 66.144 504h-199.744c5.091-0.733 9.93-2.682 14.109-5.683 4.176-3.002 7.568-6.963 9.891-11.555 2.32-4.589 3.498-9.674 3.437-14.816s-1.36-10.195-3.789-14.73c-8.672-16.16-17.12-32.128-25.44-47.84-48.8-92.192-92.8-175.424-145.216-236.32-31.328-36.416-66.624-66.24-109.216-86.112-35.072-16.416-73.921-25.568-117.793-26.976zM635.005 544h-423.169l49.92-380.16c38.848 0.416 71.073 8 99.041 21.056 32.352 15.136 60.768 38.464 87.808 69.888 47.296 54.976 87.36 130.624 136.576 223.456 8.416 15.904 17.12 32.32 26.144 49.184 2.368 4.429 5.744 8.237 9.859 11.117s8.848 4.752 13.821 5.459z" />
<glyph unicode="&#xe930;" glyph-name="ic-shower" d="M108.846 924l43.196-74.82 79.674 46-16.64 28.82h-106.23zM249.716 864.004l-79.674-46 16-27.714 79.674 46-16 27.714zM443.734 856.394c-3.878-0.010-7.763-0.138-11.648-0.37-65.434-3.928-132.785-41.91-188.209-73.91-55.426-32-121.99-71.338-158.11-126.044-34.302-51.955-44.97-117.235 6.92-215.28l522.378 301.596c-55.274 88.088-113.11 114.166-171.331 114.008zM633.414 711.41l-523.076-301.999 16-27.712 523.080 302.001-16.003 27.71zM672.186 655.278l-35.869-20.712 351.69-205.926v41.715l-315.821 184.923zM555.821 588.093l-32.077-18.518 464.262-487.475v52.202l-432.186 453.792zM690.733 553.869l-22.691-27.946 215.066-174.614 22.691 27.949-215.066 174.611zM440.752 521.661l-31.178-18.003 168.39-296.269 31.296 17.792-168.509 296.48zM383.581 453.184l-32.48-15.523 222.566-465.661h39.904l-229.99 481.184zM576.646 441.35l-28.928-21.427 331.888-447.923h44.81l-347.77 469.35zM252.44 412.931l-32.2-18.589 117.437-422.342h37.366l-122.603 440.931zM180.566 371.443l-33.124-19.126 24.832-137.354 35.426 6.403-27.134 150.077zM362.954 315.952l-33.75-12.531 123.069-331.421h38.397l-127.715 343.952zM644.813 155.821l-31.040-18.237 97.302-165.584h41.754l-108.016 183.821zM222.894 132.454l-35.62-5.219 22.762-155.235h36.384l-23.526 160.454z" />
<glyph unicode="&#xe931;" glyph-name="ic-toilet" d="M480 704c0-8.487-3.373-16.626-9.373-22.628s-14.141-9.372-22.627-9.372h-64c-8.486 0-16.627 3.372-22.627 9.372s-9.373 14.14-9.373 22.628c0 8.487 3.373 16.626 9.373 22.628s14.141 9.372 22.627 9.372h64c8.486 0 16.627-3.372 22.627-9.372s9.373-14.14 9.373-22.628zM689.28 171.44l14.080-98.4c1.296-9.075 0.624-18.326-1.965-27.12-2.592-8.797-7.040-16.931-13.050-23.859-6.006-6.925-13.434-12.48-21.773-16.285-8.342-3.808-17.405-5.776-26.573-5.776h-256c-9.168 0-18.23 1.968-26.573 5.776-8.339 3.805-15.766 9.36-21.773 16.285-6.010 6.928-10.458 15.062-13.050 23.859-2.589 8.794-3.26 18.045-1.965 27.12l14.080 98.4c-62.284 32.461-114.483 81.366-150.927 141.408-36.444 60.038-55.74 128.918-55.793 199.152 0 8.486 3.372 16.627 9.372 22.627s14.14 9.373 22.628 9.373h64v256c0 16.974 6.743 33.252 18.745 45.255s28.281 18.745 45.255 18.745h448c16.973 0 33.251-6.743 45.254-18.745s18.746-28.281 18.746-45.255v-256h64c8.486 0 16.627-3.373 22.627-9.373s9.373-14.141 9.373-22.627c-0.051-70.234-19.347-139.114-55.792-199.152-36.445-60.042-88.643-108.947-150.928-141.408zM288 544h448v256h-448v-256zM628.282 146c-75.664-24-156.899-24-232.56 0l-11.722-82h256l-11.718 82zM830.4 480h-636.8c7.924-78.941 44.889-152.122 103.723-205.344 58.834-53.226 135.34-82.698 214.677-82.698s155.843 29.472 214.678 82.698c58.832 53.222 95.798 126.403 103.722 205.344z" />
</font>
</defs>
</svg>
